Amstelvar-Italic_opsz144_wdth50.ufo
<glyph name="dollar" format="2">
	<unicode hex="0024"/>
	<advance width="685"/>
	<outline>
		<contour>
			<point x="-70" y="182" type="qcurve"/>
			<point x="-34" y="216" type="line"/>
			<point x="-13" y="146"/>
			<point x="109" y="53"/>
			<point x="201" y="53" type="qcurve" smooth="yes"/>
			<point x="312" y="53"/>
			<point x="462" y="231"/>
			<point x="474" y="362" type="qcurve" smooth="yes"/>
			<point x="485" y="482"/>
			<point x="388" y="659"/>
			<point x="307" y="749" type="qcurve" smooth="yes"/>
			<point x="237" y="829"/>
			<point x="108" y="1041"/>
			<point x="121" y="1188" type="qcurve" smooth="yes"/>
			<point x="135" y="1335"/>
			<point x="330" y="1494"/>
			<point x="451" y="1494" type="qcurve" smooth="yes"/>
			<point x="561" y="1494"/>
			<point x="673" y="1385"/>
			<point x="691" y="1314" type="qcurve"/>
			<point x="651" y="1298" type="line"/>
			<point x="630" y="1362"/>
			<point x="529" y="1455"/>
			<point x="436" y="1455" type="qcurve" smooth="yes"/>
			<point x="354" y="1455"/>
			<point x="244" y="1363"/>
			<point x="233" y="1262" type="qcurve" smooth="yes"/>
			<point x="223" y="1163"/>
			<point x="322" y="952"/>
			<point x="402" y="862" type="qcurve" smooth="yes"/>
			<point x="485" y="770"/>
			<point x="601" y="521"/>
			<point x="586" y="359" type="qcurve" smooth="yes"/>
			<point x="572" y="211"/>
			<point x="339" y="12"/>
			<point x="202" y="14" type="qcurve" smooth="yes"/>
			<point x="82" y="16"/>
			<point x="-44" y="113"/>
		</contour>
		<contour>
			<point x="189" y="-142" type="line"/>
			<point x="216" y="32" type="line"/>
			<point x="215" y="32" type="line"/>
			<point x="334" y="804" type="line"/>
			<point x="351" y="768" type="line"/>
			<point x="237" y="26" type="line"/>
			<point x="238" y="26" type="line"/>
			<point x="212" y="-135" type="line"/>
		</contour>
		<contour>
			<point x="457" y="1570" type="line"/>
			<point x="479" y="1573" type="line"/>
			<point x="463" y="1465" type="line"/>
			<point x="463" y="1465" type="line"/>
			<point x="352" y="780" type="line"/>
			<point x="335" y="817" type="line"/>
			<point x="440" y="1471" type="line"/>
			<point x="441" y="1471" type="line"/>
		</contour>
	</outline>
</glyph>
<glyph name="hyphen" format="2">
	<unicode hex="002D"/>
	<advance width="599"/>
	<outline>
		<contour>
			<point x="66" y="555" type="line"/>
			<point x="99" y="688" type="line"/>
			<point x="319" y="684" type="line"/>
			<point x="528" y="688" type="line"/>
			<point x="495" y="555" type="line"/>
			<point x="286" y="559" type="line"/>
		</contour>
	</outline>
</glyph>
<glyph name="slash" format="2">
	<unicode hex="002F"/>
	<advance width="488"/>
	<outline>
		<contour>
			<point x="-84" y="-130" type="line"/>
			<point x="530" y="1543" type="line"/>
			<point x="576" y="1528" type="line"/>
			<point x="-37" y="-146" type="line"/>
		</contour>
	</outline>
</glyph>
<glyph name="Q" format="2">
  <advance width="817"/>
  <unicode hex="0051"/>
  <outline>
    <contour>
      <point x="57" y="817" type="qcurve" smooth="yes"/>
      <point x="128" y="1129"/>
      <point x="433" y="1538"/>
      <point x="606" y="1506" type="qcurve" smooth="yes"/>
      <point x="749" y="1479"/>
      <point x="822" y="1085"/>
      <point x="747" y="738" type="qcurve" smooth="yes"/>
      <point x="668" y="375"/>
      <point x="336" y="-31"/>
      <point x="198" y="-7" type="qcurve" smooth="yes"/>
      <point x="52" y="18"/>
      <point x="-29" y="441"/>
    </contour>
    <contour>
      <point x="225" y="764" type="qcurve" smooth="yes"/>
      <point x="155" y="440"/>
      <point x="123" y="28"/>
      <point x="200" y="15" type="qcurve" smooth="yes"/>
      <point x="292" y="0"/>
      <point x="499" y="414"/>
      <point x="580" y="773" type="qcurve" smooth="yes"/>
      <point x="655" y="1105"/>
      <point x="676" y="1458"/>
      <point x="589" y="1476" type="qcurve" smooth="yes"/>
      <point x="489" y="1497"/>
      <point x="304" y="1132"/>
    </contour>
    <contour>
      <point x="66" y="-87" type="qcurve"/>
      <point x="71" y="-111" type="line"/>
      <point x="151" y="-150" type="line" smooth="yes"/>
      <point x="300" y="-222"/>
      <point x="430" y="-162"/>
      <point x="501" y="-68" type="qcurve"/>
      <point x="520" y="-73" type="line"/>
      <point x="460" y="-174"/>
      <point x="346" y="-304"/>
      <point x="281" y="-346" type="qcurve"/>
      <point x="42" y="-235" type="line"/>
      <point x="-11" y="-218"/>
      <point x="-77" y="-240"/>
      <point x="-111" y="-294" type="qcurve"/>
      <point x="-124" y="-280" type="line"/>
      <point x="-117" y="-245"/>
      <point x="-6" y="-139"/>
    </contour>
    <contour>
      <point x="46" y="-102" type="line"/>
      <point x="79" y="-81"/>
      <point x="206" y="66"/>
      <point x="228" y="103" type="qcurve" smooth="yes"/>
      <point x="233" y="112"/>
      <point x="237" y="120"/>
      <point x="238" y="125" type="qcurve"/>
      <point x="242" y="126"/>
      <point x="259" y="127"/>
      <point x="264" y="126" type="qcurve"/>
      <point x="263" y="123"/>
      <point x="260" y="117"/>
      <point x="256" y="109" type="qcurve" smooth="yes"/>
      <point x="235" y="67"/>
      <point x="117" y="-99"/>
      <point x="78" y="-123" type="qcurve"/>
    </contour>
  </outline>
</glyph>
<glyph name="X" format="2">
  <advance width="914"/>
  <unicode hex="0058"/>
  <outline>
    <contour>
      <point x="-211" y="0" type="line"/>
      <point x="-206" y="21" type="line"/>
      <point x="-55" y="38" type="line"/>
      <point x="418" y="770" type="line"/>
      <point x="269" y="1462" type="line"/>
      <point x="173" y="1474" type="line"/>
      <point x="179" y="1500" type="line"/>
      <point x="539" y="1500" type="line"/>
      <point x="533" y="1474" type="line"/>
      <point x="426" y="1464" type="line"/>
      <point x="515" y="1009" type="line"/>
      <point x="538" y="884" type="line"/>
      <point x="539" y="884" type="line"/>
      <point x="621" y="1009" type="line"/>
      <point x="910" y="1453" type="line"/>
      <point x="754" y="1475" type="line"/>
      <point x="760" y="1500" type="line"/>
      <point x="1112" y="1500" type="line"/>
      <point x="1106" y="1475" type="line"/>
      <point x="947" y="1457" type="line"/>
      <point x="550" y="832" type="line"/>
      <point x="719" y="32" type="line"/>
      <point x="816" y="21" type="line"/>
      <point x="811" y="0" type="line"/>
      <point x="436" y="0" type="line"/>
      <point x="441" y="21" type="line"/>
      <point x="558" y="31" type="line"/>
      <point x="454" y="583" type="line"/>
      <point x="429" y="718" type="line"/>
      <point x="428" y="718" type="line"/>
      <point x="340" y="583" type="line"/>
      <point x="-13" y="42" type="line"/>
      <point x="157" y="21" type="line"/>
      <point x="152" y="0" type="line"/>
    </contour>
  </outline>
</glyph>
<glyph name="w" format="2">
	<unicode hex="0077"/>
	<advance width="901"/>
	<outline>
		<contour>
			<point x="81" y="10" type="line"/>
			<point x="83" y="471" type="line"/>
			<point x="74" y="853" type="line"/>
			<point x="-26" y="844" type="line"/>
			<point x="-29" y="866" type="line"/>
			<point x="189" y="924" type="line"/>
			<point x="197" y="909" type="line"/>
			<point x="193" y="521" type="line"/>
			<point x="198" y="174" type="line"/>
			<point x="198" y="124" type="line"/>
			<point x="199" y="124" type="line"/>
			<point x="241" y="174" type="line"/>
			<point x="324" y="280"/>
			<point x="441" y="465"/>
			<point x="455" y="495" type="qcurve"/>
			<point x="455" y="864" type="line"/>
			<point x="405" y="861" type="line"/>
			<point x="402" y="882" type="line"/>
			<point x="556" y="919" type="line"/>
			<point x="562" y="905" type="line"/>
			<point x="558" y="521" type="line"/>
			<point x="564" y="174" type="line"/>
			<point x="564" y="127" type="line"/>
			<point x="565" y="127" type="line"/>
			<point x="601" y="174" type="line"/>
			<point x="706" y="319"/>
			<point x="852" y="620"/>
			<point x="855" y="731" type="qcurve" smooth="yes"/>
			<point x="858" y="794"/>
			<point x="818" y="877"/>
			<point x="750" y="914" type="qcurve"/>
			<point x="767" y="921"/>
			<point x="814" y="932"/>
			<point x="836" y="932" type="qcurve" smooth="yes"/>
			<point x="893" y="932"/>
			<point x="943" y="860"/>
			<point x="939" y="802" type="qcurve" smooth="yes"/>
			<point x="934" y="684"/>
			<point x="677" y="224"/>
			<point x="485" y="-5" type="qcurve"/>
			<point x="447" y="13" type="line"/>
			<point x="454" y="404" type="line"/>
			<point x="456" y="464" type="line"/>
			<point x="455" y="464" type="line"/>
			<point x="421" y="402" type="line"/>
			<point x="393" y="351"/>
			<point x="255" y="153"/>
			<point x="117" y="-8" type="qcurve"/>
		</contour>
	</outline>
</glyph>
<glyph name="x" format="2">
	<unicode hex="0078"/>
	<advance width="698"/>
	<outline>
		<contour>
			<point x="-144" y="24" type="qcurve" smooth="yes"/>
			<point x="-166" y="38" type="line"/>
			<point x="-159" y="50" type="line"/>
			<point x="-131" y="52" type="line"/>
			<point x="-82" y="55"/>
			<point x="3" y="81"/>
			<point x="24" y="96" type="qcurve" smooth="yes"/>
			<point x="56" y="119"/>
			<point x="148" y="255"/>
			<point x="249" y="433" type="qcurve"/>
			<point x="135" y="861" type="line"/>
			<point x="42" y="861" type="line"/>
			<point x="39" y="889" type="line"/>
			<point x="251" y="934" type="line"/>
			<point x="256" y="929" type="line"/>
			<point x="323" y="652" type="line"/>
			<point x="336" y="592" type="line"/>
			<point x="337" y="592" type="line"/>
			<point x="370" y="652" type="line"/>
			<point x="437" y="770"/>
			<point x="489" y="857"/>
			<point x="509" y="883" type="qcurve" smooth="yes"/>
			<point x="529" y="909"/>
			<point x="580" y="941"/>
			<point x="608" y="941" type="qcurve" smooth="yes"/>
			<point x="653" y="941"/>
			<point x="696" y="888"/>
			<point x="696" y="856" type="qcurve" smooth="yes"/>
			<point x="696" y="821"/>
			<point x="641" y="749"/>
			<point x="612" y="742" type="qcurve"/>
			<point x="599" y="755" type="line"/>
			<point x="601" y="847" type="line" smooth="yes"/>
			<point x="601" y="864"/>
			<point x="588" y="878"/>
			<point x="576" y="878" type="qcurve" smooth="yes"/>
			<point x="545" y="878"/>
			<point x="535" y="878"/>
			<point x="492" y="810" type="qcurve"/>
			<point x="466" y="772"/>
			<point x="455" y="753"/>
			<point x="346" y="555" type="qcurve"/>
			<point x="494" y="68" type="line"/>
			<point x="607" y="93" type="line"/>
			<point x="604" y="73" type="line"/>
			<point x="393" y="-10" type="line"/>
			<point x="371" y="15" type="line"/>
			<point x="279" y="329" type="line"/>
			<point x="259" y="398" type="line"/>
			<point x="258" y="398" type="line"/>
			<point x="219" y="329" type="line"/>
			<point x="138" y="189"/>
			<point x="13" y="4"/>
			<point x="-16" y="-3" type="qcurve" smooth="yes"/>
			<point x="-45" y="-10"/>
			<point x="-110" y="2"/>
		</contour>
	</outline>
</glyph>
<glyph name="cent" format="2">
	<unicode hex="00A2"/>
	<advance width="563"/>
	<outline>
		<contour>
			<point x="120" y="-96" type="line"/>
			<point x="186" y="182" type="line"/>
			<point x="187" y="187" type="line"/>
			<point x="265" y="540" type="line"/>
			<point x="283" y="534" type="line"/>
			<point x="208" y="187" type="line"/>
			<point x="207" y="182" type="line"/>
			<point x="139" y="-108" type="line"/>
		</contour>
		<contour>
			<point x="424" y="1249" type="line"/>
			<point x="447" y="1258" type="line"/>
			<point x="402" y="1054" type="line"/>
			<point x="401" y="1049" type="line"/>
			<point x="283" y="534" type="line"/>
			<point x="265" y="540" type="line"/>
			<point x="382" y="1049" type="line"/>
			<point x="383" y="1054" type="line"/>
		</contour>
		<contour>
			<point x="23" y="580" type="qcurve" smooth="yes"/>
			<point x="50" y="783"/>
			<point x="283" y="1074"/>
			<point x="433" y="1076" type="qcurve" smooth="yes"/>
			<point x="499" y="1077"/>
			<point x="561" y="991"/>
			<point x="559" y="922" type="qcurve" smooth="yes"/>
			<point x="559" y="875"/>
			<point x="524" y="795"/>
			<point x="496" y="762" type="qcurve"/>
			<point x="448" y="790" type="line"/>
			<point x="441" y="990" type="line" smooth="yes"/>
			<point x="440" y="1015"/>
			<point x="419" y="1046"/>
			<point x="394" y="1045" type="qcurve" smooth="yes"/>
			<point x="328" y="1044"/>
			<point x="201" y="800"/>
			<point x="171" y="588" type="qcurve" smooth="yes"/>
			<point x="145" y="419"/>
			<point x="171" y="248"/>
			<point x="241" y="244" type="qcurve" smooth="yes"/>
			<point x="299" y="241"/>
			<point x="420" y="312"/>
			<point x="469" y="394" type="qcurve"/>
			<point x="488" y="374" type="line"/>
			<point x="487" y="360" type="line"/>
			<point x="441" y="263"/>
			<point x="293" y="150"/>
			<point x="184" y="148" type="qcurve" smooth="yes"/>
			<point x="93" y="146"/>
			<point x="-6" y="367"/>
		</contour>
	</outline>
</glyph>
<glyph name="currency" format="2">
	<unicode hex="00A4"/>
	<advance width="975"/>
	<outline>
		<contour>
			<point x="139" y="810" type="qcurve" smooth="yes"/>
			<point x="139" y="1003"/>
			<point x="365" y="1275"/>
			<point x="548" y="1275" type="qcurve" smooth="yes"/>
			<point x="732" y="1275"/>
			<point x="961" y="1021"/>
			<point x="961" y="815" type="qcurve" smooth="yes"/>
			<point x="961" y="623"/>
			<point x="736" y="345"/>
			<point x="553" y="345" type="qcurve" smooth="yes"/>
			<point x="369" y="345"/>
			<point x="139" y="603"/>
		</contour>
		<contour>
			<point x="211" y="829" type="qcurve" smooth="yes"/>
			<point x="212" y="652"/>
			<point x="389" y="406"/>
			<point x="546" y="406" type="qcurve" smooth="yes"/>
			<point x="712" y="406"/>
			<point x="882" y="629"/>
			<point x="882" y="815" type="qcurve" smooth="yes"/>
			<point x="882" y="984"/>
			<point x="704" y="1207"/>
			<point x="548" y="1207" type="qcurve" smooth="yes"/>
			<point x="380" y="1207"/>
			<point x="210" y="1005"/>
		</contour>
		<contour>
			<point x="289" y="1111" type="line"/>
			<point x="39" y="1363" type="line"/>
			<point x="65" y="1395" type="line"/>
			<point x="302" y="1129" type="line"/>
		</contour>
		<contour>
			<point x="827" y="1101" type="line"/>
			<point x="815" y="1120" type="line"/>
			<point x="1062" y="1405" type="line"/>
			<point x="1087" y="1372" type="line"/>
		</contour>
		<contour>
			<point x="291" y="504" type="line"/>
			<point x="304" y="486" type="line"/>
			<point x="57" y="202" type="line"/>
			<point x="31" y="233" type="line"/>
		</contour>
		<contour>
			<point x="832" y="504" type="line"/>
			<point x="1101" y="223" type="line"/>
			<point x="1076" y="191" type="line"/>
			<point x="820" y="485" type="line"/>
		</contour>
	</outline>
</glyph>
<glyph name="section" format="2">
	<unicode hex="00A7"/>
	<advance width="794"/>
	<outline>
		<contour>
			<point x="689" y="143" type="qcurve" smooth="yes"/>
			<point x="661" y="-29"/>
			<point x="436" y="-206"/>
			<point x="303" y="-206" type="qcurve" smooth="yes"/>
			<point x="168" y="-206"/>
			<point x="-47" y="-87"/>
			<point x="-47" y="16" type="qcurve" smooth="yes"/>
			<point x="-46" y="65"/>
			<point x="-13" y="158"/>
			<point x="14" y="188" type="qcurve"/>
			<point x="42" y="181" type="line"/>
			<point x="27" y="148"/>
			<point x="18" y="78"/>
			<point x="17" y="24" type="qcurve" smooth="yes"/>
			<point x="16" y="-37"/>
			<point x="152" y="-134"/>
			<point x="295" y="-134" type="qcurve" smooth="yes"/>
			<point x="416" y="-134"/>
			<point x="573" y="-15"/>
			<point x="589" y="89" type="qcurve" smooth="yes"/>
			<point x="603" y="179"/>
			<point x="500" y="311"/>
			<point x="368" y="382" type="qcurve" smooth="yes"/>
			<point x="223" y="458"/>
			<point x="76" y="652"/>
			<point x="104" y="797" type="qcurve" smooth="yes"/>
			<point x="118" y="874"/>
			<point x="212" y="986"/>
			<point x="277" y="1021" type="qcurve"/>
			<point x="231" y="1065"/>
			<point x="194" y="1179"/>
			<point x="211" y="1266" type="qcurve" smooth="yes"/>
			<point x="230" y="1366"/>
			<point x="401" y="1512"/>
			<point x="538" y="1512" type="qcurve" smooth="yes"/>
			<point x="649" y="1512"/>
			<point x="768" y="1411"/>
			<point x="768" y="1328" type="qcurve" smooth="yes"/>
			<point x="768" y="1283"/>
			<point x="739" y="1216"/>
			<point x="723" y="1191" type="qcurve"/>
			<point x="686" y="1216" type="line"/>
			<point x="703" y="1241"/>
			<point x="721" y="1279"/>
			<point x="721" y="1331" type="qcurve"/>
			<point x="721" y="1390"/>
			<point x="617" y="1475"/>
			<point x="529" y="1475" type="qcurve" smooth="yes"/>
			<point x="430" y="1475"/>
			<point x="330" y="1373"/>
			<point x="319" y="1293" type="qcurve" smooth="yes"/>
			<point x="306" y="1209"/>
			<point x="389" y="1120"/>
			<point x="523" y="1076" type="qcurve" smooth="yes"/>
			<point x="656" y="1033"/>
			<point x="779" y="876"/>
			<point x="757" y="752" type="qcurve" smooth="yes"/>
			<point x="740" y="653"/>
			<point x="599" y="525"/>
			<point x="509" y="497" type="qcurve"/>
			<point x="593" y="446"/>
			<point x="711" y="276"/>
		</contour>
		<contour>
			<point x="155" y="831" type="qcurve" smooth="yes"/>
			<point x="143" y="753"/>
			<point x="315" y="599"/>
			<point x="449" y="535" type="qcurve"/>
			<point x="539" y="535"/>
			<point x="665" y="624"/>
			<point x="678" y="707" type="qcurve" smooth="yes"/>
			<point x="692" y="791"/>
			<point x="551" y="899"/>
			<point x="411" y="947" type="qcurve" smooth="yes"/>
			<point x="387" y="955"/>
			<point x="328" y="973"/>
			<point x="310" y="982" type="qcurve"/>
			<point x="256" y="963"/>
			<point x="164" y="891"/>
		</contour>
	</outline>
</glyph>
<glyph name="dieresis" format="2">
	<unicode hex="00A8"/>
	<advance width="896"/>
	<outline>
		<contour>
			<point x="564" y="1099" type="qcurve" smooth="yes"/>
			<point x="564" y="1133"/>
			<point x="609" y="1177"/>
			<point x="644" y="1177" type="qcurve" smooth="yes"/>
			<point x="680" y="1177"/>
			<point x="724" y="1134"/>
			<point x="724" y="1099" type="qcurve" smooth="yes"/>
			<point x="724" y="1065"/>
			<point x="679" y="1021"/>
			<point x="644" y="1021" type="qcurve" smooth="yes"/>
			<point x="608" y="1021"/>
			<point x="564" y="1065"/>
		</contour>
		<contour>
			<point x="332" y="1099" type="qcurve" smooth="yes"/>
			<point x="332" y="1133"/>
			<point x="377" y="1177"/>
			<point x="412" y="1177" type="qcurve" smooth="yes"/>
			<point x="448" y="1177"/>
			<point x="492" y="1134"/>
			<point x="492" y="1099" type="qcurve" smooth="yes"/>
			<point x="492" y="1065"/>
			<point x="447" y="1021"/>
			<point x="412" y="1021" type="qcurve" smooth="yes"/>
			<point x="376" y="1021"/>
			<point x="332" y="1065"/>
		</contour>
	</outline>
	<anchor name="_GRKtop" x="503" y="920"/>
</glyph>
<glyph name="copyright" format="2">
	<unicode hex="00A9"/>
	<advance width="1491"/>
	<outline>
		<contour>
			<point x="419" y="642" type="qcurve" smooth="yes"/>
			<point x="419" y="842"/>
			<point x="615" y="1119"/>
			<point x="759" y="1119" type="qcurve" smooth="yes"/>
			<point x="811" y="1119"/>
			<point x="897" y="1090"/>
			<point x="932" y="1066" type="qcurve"/>
			<point x="985" y="1121" type="line"/>
			<point x="995" y="1121" type="line"/>
			<point x="992" y="807" type="line"/>
			<point x="981" y="807" type="line"/>
			<point x="943" y="921" type="line"/>
			<point x="913" y="1015"/>
			<point x="819" y="1091"/>
			<point x="763" y="1091" type="qcurve" smooth="yes"/>
			<point x="663" y="1091"/>
			<point x="563" y="918"/>
			<point x="563" y="687" type="qcurve" smooth="yes"/>
			<point x="563" y="501"/>
			<point x="691" y="320"/>
			<point x="786" y="320" type="qcurve" smooth="yes"/>
			<point x="888" y="320"/>
			<point x="991" y="399"/>
			<point x="1026" y="467" type="qcurve"/>
			<point x="1035" y="454" type="line"/>
			<point x="1018" y="373"/>
			<point x="871" y="235"/>
			<point x="760" y="235" type="qcurve" smooth="yes"/>
			<point x="613" y="235"/>
			<point x="419" y="472"/>
		</contour>
		<contour>
			<point x="46" y="679" type="qcurve" smooth="yes"/>
			<point x="46" y="1035"/>
			<point x="450" y="1516"/>
			<point x="745" y="1516" type="qcurve" smooth="yes"/>
			<point x="1040" y="1516"/>
			<point x="1441" y="1060"/>
			<point x="1441" y="700" type="qcurve" smooth="yes"/>
			<point x="1441" y="305"/>
			<point x="1046" y="-196"/>
			<point x="754" y="-196" type="qcurve" smooth="yes"/>
			<point x="454" y="-196"/>
			<point x="46" y="293"/>
		</contour>
		<contour>
			<point x="87" y="674" type="qcurve" smooth="yes"/>
			<point x="87" y="331"/>
			<point x="490" y="-130"/>
			<point x="765" y="-130" type="qcurve" smooth="yes"/>
			<point x="1034" y="-130"/>
			<point x="1394" y="355"/>
			<point x="1394" y="692" type="qcurve" smooth="yes"/>
			<point x="1394" y="999"/>
			<point x="1014" y="1446"/>
			<point x="726" y="1446" type="qcurve" smooth="yes"/>
			<point x="451" y="1446"/>
			<point x="87" y="990"/>
		</contour>
	</outline>
</glyph>
<glyph name="ordfeminine" format="2">
	<unicode hex="00AA"/>
	<advance width="660"/>
	<outline>
		<contour>
			<point x="197" y="917" type="qcurve" smooth="yes"/>
			<point x="209" y="1150"/>
			<point x="453" y="1491"/>
			<point x="570" y="1491" type="qcurve" smooth="yes"/>
			<point x="609" y="1491"/>
			<point x="652" y="1462"/>
			<point x="656" y="1454" type="qcurve"/>
			<point x="702" y="1492" type="line"/>
			<point x="727" y="1492" type="line"/>
			<point x="735" y="1374" type="line"/>
			<point x="668" y="1043" type="line"/>
			<point x="645" y="893" type="line"/>
			<point x="674" y="713" type="line"/>
			<point x="645" y="703" type="line"/>
			<point x="555" y="862" type="line"/>
			<point x="389" y="717" type="line"/>
			<point x="283" y="717"/>
			<point x="193" y="830"/>
		</contour>
		<contour>
			<point x="319" y="968" type="qcurve" smooth="yes"/>
			<point x="315" y="870"/>
			<point x="353" y="806"/>
			<point x="384" y="806" type="qcurve" smooth="yes"/>
			<point x="430" y="806"/>
			<point x="541" y="951"/>
			<point x="579" y="1116" type="qcurve" smooth="yes"/>
			<point x="636" y="1399" type="line"/>
			<point x="631" y="1423"/>
			<point x="610" y="1457"/>
			<point x="577" y="1457" type="qcurve" smooth="yes"/>
			<point x="472" y="1457"/>
			<point x="329" y="1102"/>
		</contour>
	</outline>
</glyph>
<glyph name="logicalnot" format="2">
	<unicode hex="00AC"/>
	<advance width="685"/>
	<outline>
		<contour>
			<point x="66" y="699" type="line"/>
			<point x="576" y="699" type="line"/>
			<point x="576" y="359" type="line"/>
			<point x="480" y="359" type="line"/>
			<point x="480" y="615" type="line"/>
			<point x="66" y="615" type="line"/>
		</contour>
	</outline>
</glyph>
<glyph name="registered" format="2">
	<unicode hex="00AE"/>
	<advance width="1491"/>
	<outline>
		<contour>
			<point x="46" y="679" type="qcurve" smooth="yes"/>
			<point x="46" y="1035"/>
			<point x="450" y="1516"/>
			<point x="745" y="1516" type="qcurve" smooth="yes"/>
			<point x="1040" y="1516"/>
			<point x="1441" y="1060"/>
			<point x="1441" y="700" type="qcurve" smooth="yes"/>
			<point x="1441" y="305"/>
			<point x="1046" y="-196"/>
			<point x="754" y="-196" type="qcurve" smooth="yes"/>
			<point x="454" y="-196"/>
			<point x="46" y="293"/>
		</contour>
		<contour>
			<point x="87" y="674" type="qcurve" smooth="yes"/>
			<point x="87" y="331"/>
			<point x="490" y="-130"/>
			<point x="765" y="-130" type="qcurve" smooth="yes"/>
			<point x="1034" y="-130"/>
			<point x="1394" y="355"/>
			<point x="1394" y="692" type="qcurve" smooth="yes"/>
			<point x="1394" y="999"/>
			<point x="1014" y="1446"/>
			<point x="726" y="1446" type="qcurve" smooth="yes"/>
			<point x="451" y="1446"/>
			<point x="87" y="990"/>
		</contour>
		<contour>
			<point x="477" y="259" type="line"/>
			<point x="469" y="285" type="line"/>
			<point x="546" y="305" type="line"/>
			<point x="552" y="698" type="line"/>
			<point x="544" y="1030" type="line"/>
			<point x="470" y="1054" type="line"/>
			<point x="472" y="1089" type="line"/>
			<point x="773" y="1089" type="line" smooth="yes"/>
			<point x="875" y="1089"/>
			<point x="975" y="987"/>
			<point x="975" y="895" type="qcurve" smooth="yes"/>
			<point x="975" y="794"/>
			<point x="853" y="651"/>
			<point x="770" y="651" type="qcurve" smooth="yes"/>
			<point x="738" y="651"/>
			<point x="656" y="658"/>
			<point x="641" y="658" type="qcurve"/>
			<point x="639" y="688" type="line"/>
			<point x="720" y="688" type="line" smooth="yes"/>
			<point x="799" y="688"/>
			<point x="854" y="802"/>
			<point x="854" y="897" type="qcurve" smooth="yes"/>
			<point x="854" y="979"/>
			<point x="794" y="1051"/>
			<point x="726" y="1051" type="qcurve" smooth="yes"/>
			<point x="677" y="1051" type="line"/>
			<point x="662" y="1036" type="line"/>
			<point x="656" y="698" type="line"/>
			<point x="664" y="305" type="line"/>
			<point x="739" y="285" type="line"/>
			<point x="739" y="259" type="line"/>
		</contour>
		<contour>
			<point x="708" y="688" type="line"/>
			<point x="816" y="711" type="line"/>
			<point x="999" y="390" type="line" smooth="yes"/>
			<point x="1030" y="327"/>
			<point x="1109" y="289"/>
			<point x="1135" y="289" type="qcurve"/>
			<point x="1133" y="259" type="line"/>
			<point x="970" y="259" type="line"/>
			<point x="943" y="270" type="line"/>
		</contour>
	</outline>
</glyph>
<glyph name="macron" format="2">
	<unicode hex="00AF"/>
	<advance width="896"/>
	<outline>
		<contour>
			<point x="313" y="1082" type="line"/>
			<point x="331" y="1171" type="line"/>
			<point x="754" y="1171" type="line"/>
			<point x="736" y="1082" type="line"/>
		</contour>
	</outline>
</glyph>
<glyph name="degree" format="2">
	<unicode hex="00B0"/>
	<advance width="789"/>
	<outline>
		<contour>
			<point x="236" y="1243" type="qcurve" smooth="yes"/>
			<point x="236" y="1371"/>
			<point x="387" y="1560"/>
			<point x="505" y="1560" type="qcurve" smooth="yes"/>
			<point x="624" y="1560"/>
			<point x="775" y="1371"/>
			<point x="775" y="1243" type="qcurve" smooth="yes"/>
			<point x="775" y="1118"/>
			<point x="624" y="928"/>
			<point x="505" y="928" type="qcurve" smooth="yes"/>
			<point x="387" y="928"/>
			<point x="236" y="1118"/>
		</contour>
		<contour>
			<point x="313" y="1243" type="qcurve" smooth="yes"/>
			<point x="313" y="1151"/>
			<point x="416" y="1008"/>
			<point x="505" y="1008" type="qcurve" smooth="yes"/>
			<point x="597" y="1008"/>
			<point x="698" y="1151"/>
			<point x="698" y="1243" type="qcurve" smooth="yes"/>
			<point x="698" y="1339"/>
			<point x="597" y="1480"/>
			<point x="505" y="1480" type="qcurve" smooth="yes"/>
			<point x="416" y="1480"/>
			<point x="313" y="1339"/>
		</contour>
	</outline>
</glyph>
<glyph name="plusminus" format="2">
	<unicode hex="00B1"/>
	<advance width="685"/>
	<outline>
		<contour>
			<point x="39" y="585" type="line"/>
			<point x="39" y="679" type="line"/>
			<point x="619" y="679" type="line"/>
			<point x="619" y="585" type="line"/>
		</contour>
		<contour>
			<point x="279" y="302" type="line"/>
			<point x="279" y="952" type="line"/>
			<point x="379" y="952" type="line"/>
			<point x="379" y="302" type="line"/>
		</contour>
		<contour>
			<point x="39" y="46" type="line"/>
			<point x="39" y="140" type="line"/>
			<point x="619" y="140" type="line"/>
			<point x="619" y="46" type="line"/>
		</contour>
	</outline>
</glyph>
<glyph name="twosuperior" format="2">
	<unicode hex="00B2"/>
	<advance width="529"/>
	<outline>
		<contour>
			<point x="95" y="712" type="qcurve"/>
			<point x="77" y="747" type="line"/>
			<point x="137" y="804" type="line"/>
			<point x="318" y="957"/>
			<point x="491" y="1198"/>
			<point x="491" y="1305" type="qcurve" smooth="yes"/>
			<point x="491" y="1377"/>
			<point x="445" y="1448"/>
			<point x="393" y="1448" type="qcurve" smooth="yes"/>
			<point x="357" y="1448"/>
			<point x="279" y="1413"/>
			<point x="236" y="1367" type="qcurve"/>
			<point x="213" y="1383" type="line"/>
			<point x="248" y="1457"/>
			<point x="348" y="1524"/>
			<point x="423" y="1524" type="qcurve" smooth="yes"/>
			<point x="520" y="1524"/>
			<point x="612" y="1424"/>
			<point x="612" y="1332" type="qcurve" smooth="yes"/>
			<point x="612" y="1204"/>
			<point x="368" y="948"/>
			<point x="209" y="823" type="qcurve"/>
			<point x="214" y="819" type="line"/>
			<point x="276" y="838"/>
			<point x="462" y="837"/>
			<point x="549" y="810" type="qcurve"/>
			<point x="506" y="697" type="line"/>
			<point x="427" y="734"/>
			<point x="193" y="782"/>
		</contour>
	</outline>
</glyph>
<glyph name="threesuperior" format="2">
	<unicode hex="00B3"/>
	<advance width="554"/>
	<outline>
		<contour>
			<point x="104" y="706" type="qcurve" smooth="yes"/>
			<point x="104" y="750"/>
			<point x="163" y="812"/>
			<point x="205" y="824" type="qcurve"/>
			<point x="215" y="809" type="line"/>
			<point x="215" y="797" type="line"/>
			<point x="195" y="787"/>
			<point x="172" y="745"/>
			<point x="172" y="721" type="qcurve" smooth="yes"/>
			<point x="172" y="687"/>
			<point x="238" y="634"/>
			<point x="298" y="634" type="qcurve" smooth="yes"/>
			<point x="413" y="634"/>
			<point x="514" y="761"/>
			<point x="519" y="913" type="qcurve" smooth="yes"/>
			<point x="524" y="1007"/>
			<point x="463" y="1107"/>
			<point x="382" y="1115" type="qcurve" smooth="yes"/>
			<point x="341" y="1120" type="line"/>
			<point x="347" y="1150" type="line"/>
			<point x="373" y="1149" type="line" smooth="yes"/>
			<point x="454" y="1147"/>
			<point x="549" y="1256"/>
			<point x="549" y="1339" type="qcurve" smooth="yes"/>
			<point x="549" y="1396"/>
			<point x="505" y="1461"/>
			<point x="457" y="1461" type="qcurve" smooth="yes"/>
			<point x="421" y="1461"/>
			<point x="347" y="1419"/>
			<point x="311" y="1374" type="qcurve"/>
			<point x="284" y="1388" type="line"/>
			<point x="325" y="1460"/>
			<point x="437" y="1526"/>
			<point x="505" y="1526" type="qcurve" smooth="yes"/>
			<point x="589" y="1526"/>
			<point x="669" y="1430"/>
			<point x="664" y="1353" type="qcurve" smooth="yes"/>
			<point x="658" y="1265"/>
			<point x="546" y="1151"/>
			<point x="472" y="1138" type="qcurve"/>
			<point x="472" y="1134" type="line"/>
			<point x="553" y="1120"/>
			<point x="646" y="1018"/>
			<point x="639" y="927" type="qcurve" smooth="yes"/>
			<point x="630" y="788"/>
			<point x="437" y="584"/>
			<point x="287" y="584" type="qcurve" smooth="yes"/>
			<point x="177" y="584"/>
			<point x="104" y="659"/>
		</contour>
	</outline>
</glyph>
<glyph name="acute" format="2">
	<unicode hex="00B4"/>
	<advance width="896"/>
	<outline>
		<contour>
			<point x="428" y="1022" type="line"/>
			<point x="559" y="1262" type="line" smooth="yes"/>
			<point x="568" y="1279"/>
			<point x="604" y="1311"/>
			<point x="628" y="1311" type="qcurve" smooth="yes"/>
			<point x="645" y="1311"/>
			<point x="678" y="1288"/>
			<point x="678" y="1264" type="qcurve" smooth="yes"/>
			<point x="678" y="1240"/>
			<point x="663" y="1212"/>
			<point x="655" y="1201" type="qcurve" smooth="yes"/>
			<point x="454" y="1009" type="line"/>
		</contour>
	</outline>
</glyph>
<glyph name="paragraph" format="2">
	<unicode hex="00B6"/>
	<advance width="889"/>
	<outline>
		<contour>
			<point x="515" y="132" type="qcurve" smooth="yes"/>
			<point x="648" y="787" type="line"/>
			<point x="612" y="784"/>
			<point x="493" y="794"/>
			<point x="440" y="803" type="qcurve" smooth="yes"/>
			<point x="287" y="828"/>
			<point x="102" y="1041"/>
			<point x="133" y="1207" type="qcurve" smooth="yes"/>
			<point x="165" y="1378"/>
			<point x="404" y="1500"/>
			<point x="562" y="1500" type="qcurve" smooth="yes"/>
			<point x="982" y="1500" type="line"/>
			<point x="976" y="1469" type="line"/>
			<point x="838" y="1435" type="line"/>
			<point x="717" y="784" type="line"/>
			<point x="593" y="181" type="line"/>
			<point x="656" y="137"/>
			<point x="635" y="33"/>
			<point x="592" y="6" type="qcurve" smooth="yes"/>
			<point x="556" y="-16"/>
			<point x="500" y="61"/>
		</contour>
		<contour>
			<point x="304" y="220" type="qcurve" smooth="yes"/>
			<point x="436" y="842" type="line"/>
			<point x="496" y="833" type="line"/>
			<point x="374" y="263" type="line" smooth="yes"/>
			<point x="308" y="-45"/>
			<point x="142" y="-236"/>
			<point x="46" y="-236" type="qcurve" smooth="yes"/>
			<point x="-44" y="-236"/>
			<point x="-110" y="-171"/>
			<point x="-108" y="-110" type="qcurve" smooth="yes"/>
			<point x="-106" y="-62"/>
			<point x="-33" y="7"/>
			<point x="11" y="10" type="qcurve"/>
			<point x="16" y="-4" type="line"/>
			<point x="15" y="-25" type="line"/>
			<point x="-6" y="-25"/>
			<point x="-42" y="-75"/>
			<point x="-43" y="-107" type="qcurve" smooth="yes"/>
			<point x="-43" y="-142"/>
			<point x="13" y="-174"/>
			<point x="63" y="-174" type="qcurve" smooth="yes"/>
			<point x="156" y="-174"/>
			<point x="261" y="25"/>
		</contour>
	</outline>
</glyph>
<glyph name="periodcentered" format="2">
	<unicode hex="00B7"/>
	<advance width="418"/>
	<outline>
		<contour>
			<point x="101" y="677" type="qcurve" smooth="yes"/>
			<point x="101" y="717"/>
			<point x="158" y="778"/>
			<point x="204" y="778" type="qcurve" smooth="yes"/>
			<point x="249" y="778"/>
			<point x="307" y="717"/>
			<point x="307" y="677" type="qcurve" smooth="yes"/>
			<point x="307" y="634"/>
			<point x="249" y="573"/>
			<point x="204" y="573" type="qcurve" smooth="yes"/>
			<point x="158" y="573"/>
			<point x="101" y="634"/>
		</contour>
	</outline>
</glyph>
<glyph name="cedilla" format="2">
	<unicode hex="00B8"/>
	<advance width="896"/>
	<outline>
		<contour>
			<point x="286" y="13" type="line"/>
			<point x="224" y="-78" type="line"/>
			<point x="240" y="-68"/>
			<point x="295" y="-48"/>
			<point x="334" y="-48" type="qcurve" smooth="yes"/>
			<point x="414" y="-48"/>
			<point x="484" y="-145"/>
			<point x="473" y="-210" type="qcurve" smooth="yes"/>
			<point x="461" y="-283"/>
			<point x="349" y="-360"/>
			<point x="259" y="-360" type="qcurve" smooth="yes"/>
			<point x="184" y="-360"/>
			<point x="76" y="-310"/>
			<point x="45" y="-261" type="qcurve"/>
			<point x="59" y="-250" type="line"/>
			<point x="86" y="-280"/>
			<point x="164" y="-320"/>
			<point x="230" y="-320" type="qcurve" smooth="yes"/>
			<point x="292" y="-320"/>
			<point x="360" y="-259"/>
			<point x="367" y="-209" type="qcurve" smooth="yes"/>
			<point x="374" y="-163"/>
			<point x="325" y="-93"/>
			<point x="278" y="-93" type="qcurve" smooth="yes"/>
			<point x="253" y="-93"/>
			<point x="213" y="-105"/>
			<point x="198" y="-113" type="qcurve"/>
			<point x="180" y="-90" type="line"/>
			<point x="264" y="29" type="line"/>
		</contour>
	</outline>
</glyph>
<glyph name="ordmasculine" format="2">
	<unicode hex="00BA"/>
	<advance width="474"/>
	<outline>
		<contour>
			<point x="195" y="1157" type="qcurve" smooth="yes"/>
			<point x="241" y="1330"/>
			<point x="424" y="1512"/>
			<point x="499" y="1502" type="qcurve" smooth="yes"/>
			<point x="583" y="1493"/>
			<point x="636" y="1239"/>
			<point x="591" y="1102" type="qcurve" smooth="yes"/>
			<point x="535" y="922"/>
			<point x="354" y="748"/>
			<point x="281" y="755" type="qcurve" smooth="yes"/>
			<point x="207" y="762"/>
			<point x="152" y="1007"/>
		</contour>
		<contour>
			<point x="326" y="1164" type="qcurve" smooth="yes"/>
			<point x="286" y="1023"/>
			<point x="236" y="782"/>
			<point x="290" y="772" type="qcurve" smooth="yes"/>
			<point x="349" y="761"/>
			<point x="427" y="966"/>
			<point x="469" y="1114" type="qcurve" smooth="yes"/>
			<point x="506" y="1247"/>
			<point x="547" y="1479"/>
			<point x="492" y="1487" type="qcurve" smooth="yes"/>
			<point x="436" y="1496"/>
			<point x="365" y="1303"/>
		</contour>
	</outline>
</glyph>
<glyph name="questiondown" format="2">
	<unicode hex="00BF"/>
	<advance width="906"/>
	<outline>
		<contour>
			<point x="668" y="37" type="qcurve" smooth="yes"/>
			<point x="654" y="-64"/>
			<point x="488" y="-215"/>
			<point x="335" y="-215" type="qcurve" smooth="yes"/>
			<point x="182" y="-215"/>
			<point x="28" y="-35"/>
			<point x="28" y="94" type="qcurve" smooth="yes"/>
			<point x="28" y="238"/>
			<point x="148" y="435"/>
			<point x="285" y="522" type="qcurve" smooth="yes"/>
			<point x="413" y="603"/>
			<point x="554" y="729"/>
			<point x="572" y="804" type="qcurve" smooth="yes"/>
			<point x="596" y="901" type="line"/>
			<point x="631" y="891" type="line"/>
			<point x="616" y="807" type="line" smooth="yes"/>
			<point x="602" y="714"/>
			<point x="477" y="525"/>
			<point x="360" y="445" type="qcurve" smooth="yes"/>
			<point x="243" y="365"/>
			<point x="157" y="209"/>
			<point x="157" y="101" type="qcurve" smooth="yes"/>
			<point x="157" y="-16"/>
			<point x="275" y="-166"/>
			<point x="368" y="-166" type="qcurve" smooth="yes"/>
			<point x="452" y="-166"/>
			<point x="562" y="-84"/>
			<point x="568" y="-25" type="qcurve" smooth="yes"/>
			<point x="573" y="19"/>
			<point x="503" y="83"/>
			<point x="504" y="118" type="qcurve" smooth="yes"/>
			<point x="505" y="153"/>
			<point x="543" y="200"/>
			<point x="587" y="200" type="qcurve" smooth="yes"/>
			<point x="628" y="200"/>
			<point x="679" y="120"/>
		</contour>
		<contour>
			<point x="764" y="1218" type="qcurve" smooth="yes"/>
			<point x="764" y="1178"/>
			<point x="707" y="1117"/>
			<point x="661" y="1117" type="qcurve" smooth="yes"/>
			<point x="616" y="1117"/>
			<point x="558" y="1178"/>
			<point x="558" y="1218" type="qcurve" smooth="yes"/>
			<point x="558" y="1261"/>
			<point x="616" y="1322"/>
			<point x="661" y="1322" type="qcurve" smooth="yes"/>
			<point x="707" y="1322"/>
			<point x="764" y="1261"/>
		</contour>
	</outline>
</glyph>
<glyph name="multiply" format="2">
	<unicode hex="00D7"/>
	<advance width="685"/>
	<outline>
		<contour>
			<point x="100" y="327" type="line"/>
			<point x="29" y="399" type="line"/>
			<point x="556" y="924" type="line"/>
			<point x="627" y="852" type="line"/>
		</contour>
		<contour>
			<point x="584" y="329" type="line"/>
			<point x="42" y="864" type="line"/>
			<point x="110" y="933" type="line"/>
			<point x="652" y="398" type="line"/>
		</contour>
	</outline>
</glyph>
<glyph name="eth" format="2">
	<unicode hex="00F0"/>
	<advance width="663"/>
	<outline>
		<contour>
			<point x="53" y="521" type="qcurve" smooth="yes"/>
			<point x="96" y="707"/>
			<point x="311" y="950"/>
			<point x="420" y="938" type="qcurve" smooth="yes"/>
			<point x="500" y="929"/>
			<point x="517" y="730"/>
			<point x="499" y="617" type="qcurve"/>
			<point x="455" y="624" type="line"/>
			<point x="470" y="721"/>
			<point x="468" y="905"/>
			<point x="412" y="913" type="qcurve" smooth="yes"/>
			<point x="342" y="923"/>
			<point x="241" y="704"/>
			<point x="198" y="525" type="qcurve" smooth="yes"/>
			<point x="148" y="316"/>
			<point x="124" y="34"/>
			<point x="197" y="21" type="qcurve" smooth="yes"/>
			<point x="273" y="7"/>
			<point x="375" y="273"/>
			<point x="417" y="471" type="qcurve" smooth="yes"/>
			<point x="519" y="952"/>
			<point x="542" y="1405"/>
			<point x="461" y="1429" type="qcurve" smooth="yes"/>
			<point x="384" y="1452"/>
			<point x="238" y="1381"/>
			<point x="174" y="1291" type="qcurve"/>
			<point x="146" y="1291" type="line"/>
			<point x="146" y="1311" type="line"/>
			<point x="218" y="1429"/>
			<point x="417" y="1535"/>
			<point x="507" y="1508" type="qcurve" smooth="yes"/>
			<point x="652" y="1465"/>
			<point x="656" y="965"/>
			<point x="591" y="614" type="qcurve" smooth="yes"/>
			<point x="521" y="236"/>
			<point x="296" y="-26"/>
			<point x="191" y="-9" type="qcurve" smooth="yes"/>
			<point x="82" y="9"/>
			<point x="-1" y="289"/>
		</contour>
		<contour>
			<point x="550" y="1363" type="line"/>
			<point x="744" y="1495" type="line"/>
			<point x="757" y="1442" type="line"/>
			<point x="559" y="1333" type="line"/>
			<point x="299" y="1145" type="line"/>
			<point x="278" y="1197" type="line"/>
		</contour>
	</outline>
</glyph>
<glyph name="divide" format="2">
	<unicode hex="00F7"/>
	<advance width="685"/>
	<outline>
		<contour>
			<point x="53" y="585" type="line"/>
			<point x="53" y="679" type="line"/>
			<point x="633" y="679" type="line"/>
			<point x="633" y="585" type="line"/>
		</contour>
		<contour>
			<point x="249" y="393" type="qcurve" smooth="yes"/>
			<point x="249" y="430"/>
			<point x="302" y="487"/>
			<point x="343" y="487" type="qcurve" smooth="yes"/>
			<point x="384" y="487"/>
			<point x="437" y="430"/>
			<point x="437" y="393" type="qcurve" smooth="yes"/>
			<point x="437" y="357"/>
			<point x="384" y="300"/>
			<point x="343" y="300" type="qcurve" smooth="yes"/>
			<point x="302" y="300"/>
			<point x="249" y="357"/>
		</contour>
		<contour>
			<point x="249" y="873" type="qcurve" smooth="yes"/>
			<point x="249" y="909"/>
			<point x="302" y="966"/>
			<point x="343" y="966" type="qcurve" smooth="yes"/>
			<point x="384" y="966"/>
			<point x="437" y="909"/>
			<point x="437" y="873" type="qcurve" smooth="yes"/>
			<point x="437" y="836"/>
			<point x="384" y="779"/>
			<point x="343" y="779" type="qcurve" smooth="yes"/>
			<point x="302" y="779"/>
			<point x="249" y="836"/>
		</contour>
	</outline>
</glyph>
<glyph name="idotless" format="2">
  <advance width="361"/>
  <unicode hex="0131"/>
  <outline>
    <contour>
      <point x="55" y="-14" type="line"/>
      <point x="6" y="61" type="line"/>
      <point x="121" y="547" type="line"/>
      <point x="168" y="833" type="line"/>
      <point x="62" y="851" type="line"/>
      <point x="65" y="872" type="line"/>
      <point x="305" y="922" type="line"/>
      <point x="322" y="908" type="line"/>
      <point x="307" y="840" type="line"/>
      <point x="270" y="665" type="line"/>
      <point x="215" y="409" type="line"/>
      <point x="146" y="84" type="line"/>
      <point x="268" y="92" type="line"/>
      <point x="268" y="72" type="line"/>
    </contour>
  </outline>
</glyph>
<glyph name="kgreenlandic" format="2">
	<unicode hex="0138"/>
	<advance width="777"/>
	<outline>
		<contour>
			<point x="18" y="62" type="line"/>
			<point x="104" y="490" type="line"/>
			<point x="159" y="828" type="line"/>
			<point x="44" y="854" type="line"/>
			<point x="47" y="872" type="line"/>
			<point x="260" y="919" type="line"/>
			<point x="289" y="919" type="line"/>
			<point x="308" y="865" type="line"/>
			<point x="252" y="632" type="line"/>
			<point x="152" y="100" type="line"/>
			<point x="139" y="27" type="line"/>
			<point x="-2" y="2" type="line"/>
		</contour>
		<contour>
			<point x="792" y="890" type="line"/>
			<point x="658" y="852" type="line"/>
			<point x="425" y="605" type="line"/>
			<point x="540" y="70" type="line"/>
			<point x="647" y="62" type="line"/>
			<point x="647" y="47" type="line"/>
			<point x="517" y="5" type="line" smooth="yes"/>
			<point x="468" y="-10"/>
			<point x="433" y="17"/>
			<point x="387" y="113" type="qcurve"/>
			<point x="322" y="514" type="line"/>
			<point x="196" y="373" type="line"/>
			<point x="203" y="408" type="line"/>
			<point x="574" y="845" type="line"/>
			<point x="567" y="855" type="line"/>
			<point x="461" y="885" type="line"/>
			<point x="467" y="912" type="line"/>
			<point x="795" y="913" type="line"/>
		</contour>
	</outline>
</glyph>
<glyph name="oe" format="2">
	<unicode hex="0153"/>
	<advance width="978"/>
	<outline>
		<contour>
			<point x="55" y="535" type="qcurve" smooth="yes"/>
			<point x="117" y="753"/>
			<point x="313" y="954"/>
			<point x="422" y="939" type="qcurve" smooth="yes"/>
			<point x="487" y="930"/>
			<point x="549" y="851"/>
			<point x="563" y="795" type="qcurve"/>
			<point x="606" y="863"/>
			<point x="730" y="937"/>
			<point x="779" y="937" type="qcurve" smooth="yes"/>
			<point x="853" y="937"/>
			<point x="952" y="828"/>
			<point x="942" y="734" type="qcurve" smooth="yes"/>
			<point x="939" y="710"/>
			<point x="928" y="642"/>
			<point x="920" y="613" type="qcurve"/>
			<point x="956" y="608" type="line"/>
			<point x="948" y="572" type="line"/>
			<point x="928" y="568"/>
			<point x="791" y="575"/>
			<point x="741" y="574" type="qcurve" smooth="yes"/>
			<point x="546" y="572" type="line"/>
			<point x="558" y="595" type="line"/>
			<point x="800" y="609" type="line"/>
			<point x="811" y="650"/>
			<point x="830" y="735"/>
			<point x="834" y="770" type="qcurve" smooth="yes"/>
			<point x="842" y="836"/>
			<point x="807" y="918"/>
			<point x="760" y="918" type="qcurve" smooth="yes"/>
			<point x="699" y="918"/>
			<point x="570" y="662"/>
			<point x="531" y="468" type="qcurve" smooth="yes"/>
			<point x="493" y="280"/>
			<point x="501" y="71"/>
			<point x="572" y="59" type="qcurve" smooth="yes"/>
			<point x="636" y="48"/>
			<point x="787" y="163"/>
			<point x="843" y="286" type="qcurve"/>
			<point x="858" y="276" type="line"/>
			<point x="859" y="260" type="line"/>
			<point x="815" y="150"/>
			<point x="638" y="-17"/>
			<point x="526" y="-7" type="qcurve" smooth="yes"/>
			<point x="488" y="-4"/>
			<point x="415" y="51"/>
			<point x="400" y="124" type="qcurve"/>
			<point x="363" y="53"/>
			<point x="243" y="-21"/>
			<point x="164" y="-4" type="qcurve" smooth="yes"/>
			<point x="64" y="17"/>
			<point x="-7" y="314"/>
		</contour>
		<contour>
			<point x="199" y="523" type="qcurve" smooth="yes"/>
			<point x="146" y="318"/>
			<point x="113" y="37"/>
			<point x="179" y="24" type="qcurve" smooth="yes"/>
			<point x="259" y="8"/>
			<point x="368" y="270"/>
			<point x="412" y="470" type="qcurve" smooth="yes"/>
			<point x="451" y="646"/>
			<point x="480" y="901"/>
			<point x="413" y="911" type="qcurve" smooth="yes"/>
			<point x="348" y="921"/>
			<point x="246" y="703"/>
		</contour>
	</outline>
</glyph>
<glyph name="florin" format="2">
	<unicode hex="0192"/>
	<advance width="564"/>
	<outline>
		<contour>
			<point x="281" y="386" type="line" smooth="yes"/>
			<point x="205" y="-12"/>
			<point x="-9" y="-293"/>
			<point x="-150" y="-293" type="qcurve" smooth="yes"/>
			<point x="-170" y="-293"/>
			<point x="-208" y="-284"/>
			<point x="-214" y="-281" type="qcurve" smooth="yes"/>
			<point x="-221" y="-277" type="line"/>
			<point x="-217" y="-237" type="line"/>
			<point x="-210" y="-240" type="line" smooth="yes"/>
			<point x="-201" y="-244"/>
			<point x="-169" y="-252"/>
			<point x="-150" y="-252" type="qcurve" smooth="yes"/>
			<point x="-79" y="-252"/>
			<point x="61" y="-39"/>
			<point x="132" y="378" type="qcurve" smooth="yes"/>
			<point x="204" y="806" type="line"/>
			<point x="96" y="816" type="line"/>
			<point x="88" y="847" type="line"/>
			<point x="215" y="860" type="line"/>
			<point x="264" y="1111" type="line" smooth="yes"/>
			<point x="304" y="1314"/>
			<point x="482" y="1524"/>
			<point x="592" y="1524" type="qcurve" smooth="yes"/>
			<point x="624" y="1524"/>
			<point x="653" y="1517"/>
			<point x="665" y="1513" type="qcurve" smooth="yes"/>
			<point x="674" y="1510" type="line"/>
			<point x="671" y="1474" type="line"/>
			<point x="660" y="1479" type="line" smooth="yes"/>
			<point x="641" y="1488"/>
			<point x="615" y="1491"/>
			<point x="603" y="1491" type="qcurve" smooth="yes"/>
			<point x="534" y="1491"/>
			<point x="442" y="1314"/>
			<point x="401" y="1057" type="qcurve" smooth="yes"/>
			<point x="372" y="863" type="line"/>
			<point x="508" y="863" type="line"/>
			<point x="502" y="834" type="line"/>
			<point x="362" y="807" type="line"/>
		</contour>
	</outline>
</glyph>
<glyph name="schwa" format="2">
	<unicode hex="0259"/>
	<advance width="617"/>
	<outline>
		<contour>
			<point x="521" y="525" type="qcurve" smooth="yes"/>
			<point x="487" y="315"/>
			<point x="297" y="5"/>
			<point x="153" y="5" type="qcurve" smooth="yes"/>
			<point x="66" y="5"/>
			<point x="8" y="88"/>
			<point x="11" y="135" type="qcurve" smooth="yes"/>
			<point x="10" y="180"/>
			<point x="22" y="259"/>
			<point x="38" y="317" type="qcurve" smooth="yes"/>
			<point x="-25" y="317" type="line"/>
			<point x="-10" y="351" type="line"/>
			<point x="10" y="355"/>
			<point x="126" y="356"/>
			<point x="176" y="355" type="qcurve" smooth="yes"/>
			<point x="381" y="351" type="line"/>
			<point x="367" y="328" type="line"/>
			<point x="137" y="321" type="line"/>
			<point x="123" y="278"/>
			<point x="102" y="181"/>
			<point x="101" y="133" type="qcurve" smooth="yes"/>
			<point x="99" y="86"/>
			<point x="128" y="24"/>
			<point x="170" y="24" type="qcurve" smooth="yes"/>
			<point x="231" y="24"/>
			<point x="309" y="254"/>
			<point x="360" y="438" type="qcurve" smooth="yes"/>
			<point x="410" y="613"/>
			<point x="431" y="834"/>
			<point x="349" y="844" type="qcurve" smooth="yes"/>
			<point x="300" y="852"/>
			<point x="131" y="749"/>
			<point x="65" y="627" type="qcurve"/>
			<point x="51" y="637" type="line"/>
			<point x="51" y="653" type="line"/>
			<point x="109" y="764"/>
			<point x="291" y="931"/>
			<point x="402" y="921" type="qcurve" smooth="yes"/>
			<point x="501" y="912"/>
			<point x="553" y="710"/>
		</contour>
	</outline>
</glyph>
<glyph name="doubleprimemod" format="2">
	<unicode hex="02BA"/>
	<advance width="677"/>
	<outline>
		<contour>
			<point x="374" y="1502" type="line"/>
			<point x="563" y="1502" type="line"/>
			<point x="305" y="985" type="line"/>
			<point x="273" y="990" type="line"/>
		</contour>
		<contour>
			<point x="674" y="1502" type="line"/>
			<point x="863" y="1502" type="line"/>
			<point x="605" y="985" type="line"/>
			<point x="573" y="990" type="line"/>
		</contour>
	</outline>
</glyph>
<glyph name="apostrophemod" format="2">
	<unicode hex="02BC"/>
	<advance width="378"/>
	<outline>
		<contour>
			<point x="213" y="1135" type="line"/>
			<point x="278" y="1176"/>
			<point x="365" y="1257"/>
			<point x="388" y="1306" type="qcurve"/>
			<point x="319" y="1304"/>
			<point x="254" y="1360"/>
			<point x="254" y="1413" type="qcurve" smooth="yes"/>
			<point x="254" y="1452"/>
			<point x="310" y="1511"/>
			<point x="356" y="1511" type="qcurve" smooth="yes"/>
			<point x="401" y="1511"/>
			<point x="461" y="1452"/>
			<point x="461" y="1385" type="qcurve" smooth="yes"/>
			<point x="461" y="1302"/>
			<point x="304" y="1155"/>
			<point x="214" y="1126" type="qcurve"/>
		</contour>
	</outline>
</glyph>
<glyph name="circumflex" format="2">
	<unicode hex="02C6"/>
	<advance width="896"/>
	<outline>
		<contour>
			<point x="592" y="1334" type="qcurve" smooth="yes"/>
			<point x="613" y="1332"/>
			<point x="632" y="1280"/>
			<point x="646" y="1239" type="qcurve" smooth="yes"/>
			<point x="718" y="1022" type="line"/>
			<point x="694" y="1013" type="line"/>
			<point x="560" y="1198" type="line"/>
			<point x="310" y="1017" type="line"/>
			<point x="292" y="1036" type="line"/>
			<point x="484" y="1243" type="line" smooth="yes"/>
			<point x="528" y="1291"/>
			<point x="571" y="1336"/>
		</contour>
	</outline>
</glyph>
<glyph name="caron" format="2">
	<unicode hex="02C7"/>
	<advance width="896"/>
	<outline>
		<contour>
			<point x="502" y="1060" type="qcurve" smooth="yes"/>
			<point x="474" y="1061"/>
			<point x="462" y="1121"/>
			<point x="447" y="1162" type="qcurve" smooth="yes"/>
			<point x="376" y="1357" type="line"/>
			<point x="395" y="1369" type="line"/>
			<point x="532" y="1185" type="line"/>
			<point x="764" y="1377" type="line"/>
			<point x="782" y="1359" type="line"/>
			<point x="607" y="1157" type="line" smooth="yes"/>
			<point x="564" y="1107"/>
			<point x="531" y="1058"/>
		</contour>
	</outline>
</glyph>
<glyph name="breve" format="2">
	<unicode hex="02D8"/>
	<advance width="896"/>
	<outline>
		<contour>
			<point x="775" y="1269" type="qcurve"/>
			<point x="790" y="1258" type="line"/>
			<point x="757" y="1182"/>
			<point x="611" y="1062"/>
			<point x="525" y="1062" type="qcurve" smooth="yes"/>
			<point x="444" y="1062"/>
			<point x="331" y="1186"/>
			<point x="337" y="1271" type="qcurve"/>
			<point x="363" y="1282" type="line"/>
			<point x="378" y="1232"/>
			<point x="477" y="1151"/>
			<point x="538" y="1151" type="qcurve" smooth="yes"/>
			<point x="603" y="1151"/>
			<point x="747" y="1229"/>
		</contour>
	</outline>
</glyph>
<glyph name="ring" format="2">
	<unicode hex="02DA"/>
	<advance width="896"/>
	<outline>
		<contour>
			<point x="363" y="1208" type="qcurve" smooth="yes"/>
			<point x="363" y="1283"/>
			<point x="476" y="1392"/>
			<point x="553" y="1392" type="qcurve" smooth="yes"/>
			<point x="631" y="1392"/>
			<point x="743" y="1283"/>
			<point x="743" y="1208" type="qcurve" smooth="yes"/>
			<point x="743" y="1133"/>
			<point x="631" y="1024"/>
			<point x="553" y="1024" type="qcurve" smooth="yes"/>
			<point x="476" y="1024"/>
			<point x="363" y="1133"/>
		</contour>
		<contour>
			<point x="433" y="1208" type="qcurve" smooth="yes"/>
			<point x="433" y="1157"/>
			<point x="500" y="1091"/>
			<point x="553" y="1091" type="qcurve" smooth="yes"/>
			<point x="606" y="1091"/>
			<point x="673" y="1156"/>
			<point x="673" y="1208" type="qcurve" smooth="yes"/>
			<point x="673" y="1260"/>
			<point x="606" y="1326"/>
			<point x="553" y="1326" type="qcurve" smooth="yes"/>
			<point x="499" y="1326"/>
			<point x="433" y="1260"/>
		</contour>
	</outline>
</glyph>
<glyph name="ogonek" format="2">
	<unicode hex="02DB"/>
	<advance width="896"/>
	<outline>
		<contour>
			<point x="273" y="-162" type="qcurve" smooth="yes"/>
			<point x="271" y="-203"/>
			<point x="324" y="-256"/>
			<point x="365" y="-256" type="qcurve" smooth="yes"/>
			<point x="419" y="-256"/>
			<point x="492" y="-227"/>
			<point x="546" y="-179" type="qcurve"/>
			<point x="557" y="-189" type="line"/>
			<point x="520" y="-248"/>
			<point x="412" y="-323"/>
			<point x="351" y="-324" type="qcurve" smooth="yes"/>
			<point x="286" y="-325"/>
			<point x="200" y="-260"/>
			<point x="205" y="-201" type="qcurve" smooth="yes"/>
			<point x="211" y="-133"/>
			<point x="296" y="-29"/>
			<point x="366" y="15" type="qcurve" smooth="yes"/>
			<point x="385" y="27" type="line"/>
			<point x="394" y="15" type="line"/>
			<point x="375" y="0" type="line" smooth="yes"/>
			<point x="319" y="-44"/>
			<point x="275" y="-123"/>
		</contour>
	</outline>
</glyph>
<glyph name="hungarumlaut" format="2">
	<unicode hex="02DD"/>
	<advance width="896"/>
	<outline>
		<contour>
			<point x="313" y="1064" type="line"/>
			<point x="457" y="1276" type="line" smooth="yes"/>
			<point x="470" y="1295"/>
			<point x="501" y="1311"/>
			<point x="516" y="1311" type="qcurve" smooth="yes"/>
			<point x="543" y="1311"/>
			<point x="576" y="1277"/>
			<point x="576" y="1257" type="qcurve" smooth="yes"/>
			<point x="575" y="1244"/>
			<point x="558" y="1215"/>
			<point x="547" y="1207" type="qcurve" smooth="yes"/>
			<point x="333" y="1045" type="line"/>
		</contour>
		<contour>
			<point x="552" y="1064" type="line"/>
			<point x="694" y="1276" type="line" smooth="yes"/>
			<point x="707" y="1296"/>
			<point x="738" y="1315"/>
			<point x="759" y="1315" type="qcurve" smooth="yes"/>
			<point x="782" y="1315"/>
			<point x="813" y="1277"/>
			<point x="813" y="1257" type="qcurve" smooth="yes"/>
			<point x="812" y="1244"/>
			<point x="795" y="1216"/>
			<point x="784" y="1208" type="qcurve" smooth="yes"/>
			<point x="571" y="1045" type="line"/>
		</contour>
	</outline>
</glyph>
<glyph name="tonos" format="2">
	<unicode hex="0384"/>
	<advance width="871"/>
	<outline>
		<contour>
			<point x="454" y="1009" type="line"/>
			<point x="427" y="1019" type="line"/>
			<point x="540" y="1345" type="line"/>
			<point x="663" y="1316" type="line"/>
			<point x="663" y="1302" type="line"/>
		</contour>
	</outline>
	<guideline x="982" y="1117" angle="0" identifier="OtAJB1gllw"/>
</glyph>
<glyph name="De" format="2">
	<unicode hex="0414"/>
	<advance width="870"/>
	<outline>
		<contour>
			<point x="375" y="1460" type="line"/>
			<point x="261" y="1476" type="line"/>
			<point x="267" y="1500" type="line"/>
			<point x="982" y="1500" type="line"/>
			<point x="977" y="1476" type="line"/>
			<point x="868" y="1465" type="line"/>
			<point x="710" y="750" type="line"/>
			<point x="556" y="0" type="line"/>
			<point x="394" y="0" type="line"/>
			<point x="568" y="764" type="line"/>
			<point x="703" y="1452" type="line"/>
			<point x="683" y="1470" type="line"/>
			<point x="440" y="1470" type="line"/>
			<point x="414" y="1452" type="line"/>
			<point x="309" y="979" type="line" smooth="yes"/>
			<point x="199" y="481"/>
			<point x="86" y="127.1325167038"/>
			<point x="20" y="13" type="qcurve"/>
			<point x="-31" y="13" type="line"/>
			<point x="45" y="130.151047409"/>
			<point x="160" y="491"/>
			<point x="270" y="988" type="qcurve" smooth="yes"/>
		</contour>
		<contour>
			<point x="571" y="-338" type="line"/>
			<point x="533" y="0" type="line"/>
			<point x="7" y="0" type="line"/>
			<point x="-168" y="-338" type="line"/>
			<point x="-195" y="-338" type="line"/>
			<point x="-123" y="28" type="line"/>
			<point x="674" y="28" type="line"/>
			<point x="598" y="-338" type="line"/>
		</contour>
	</outline>
</glyph>
<glyph name="Ef" format="2">
	<unicode hex="0424"/>
	<advance width="1087"/>
	<outline>
		<contour>
			<point x="168" y="-20" type="line"/>
			<point x="172" y="-1" type="line"/>
			<point x="300" y="9" type="line"/>
			<point x="343" y="206" type="line"/>
			<point x="347" y="210" type="line"/>
			<point x="474" y="795" type="line"/>
			<point x="574" y="1292" type="line"/>
			<point x="572" y="1297" type="line"/>
			<point x="610" y="1484" type="line"/>
			<point x="491" y="1495" type="line"/>
			<point x="496" y="1520" type="line"/>
			<point x="884" y="1520" type="line"/>
			<point x="879" y="1495" type="line"/>
			<point x="767" y="1484" type="line"/>
			<point x="724" y="1290" type="line"/>
			<point x="720" y="1284" type="line"/>
			<point x="609" y="780" type="line"/>
			<point x="494" y="204" type="line"/>
			<point x="496" y="199" type="line"/>
			<point x="458" y="9" type="line"/>
			<point x="571" y="-1" type="line"/>
			<point x="567" y="-20" type="line"/>
		</contour>
		<contour>
			<point x="24" y="817" type="qcurve" smooth="yes"/>
			<point x="72" y="1035"/>
			<point x="367" y="1310"/>
			<point x="653" y="1310" type="qcurve"/>
			<point x="648" y="1286" type="line"/>
			<point x="460.8114035088" y="1286"/>
			<point x="232.012257561" y="1039.0636005524"/>
			<point x="179" y="764" type="qcurve" smooth="yes"/>
			<point x="125.9761620869" y="486.875413171"/>
			<point x="246.8605341322" y="222.1636062134"/>
			<point x="419" y="209" type="qcurve"/>
			<point x="414" y="185" type="line"/>
			<point x="176" y="202"/>
			<point x="-41" y="521"/>
		</contour>
		<contour>
			<point x="1043" y="678" type="qcurve" smooth="yes"/>
			<point x="995" y="460"/>
			<point x="700" y="185"/>
			<point x="414" y="185" type="qcurve"/>
			<point x="419" y="209" type="line"/>
			<point x="606.1885964912" y="209"/>
			<point x="831.9856011414" y="455.9292913195"/>
			<point x="888" y="731" type="qcurve" smooth="yes"/>
			<point x="941.0273299049" y="989.1330399142"/>
			<point x="841.3941778657" y="1266.7618357097"/>
			<point x="648" y="1286" type="qcurve"/>
			<point x="653" y="1310" type="line"/>
			<point x="891" y="1293"/>
			<point x="1108" y="974"/>
		</contour>
	</outline>
	<guideline x="769" y="229" angle="0" identifier="3OSj1D4BTx"/>
	<guideline x="987" y="1264" angle="0" identifier="qlKNpU9Xgf"/>
</glyph>
<glyph name="horizontalbar" format="2">
	<unicode hex="2015"/>
	<advance width="776"/>
	<outline>
		<contour>
			<point x="356" y="760" type="line"/>
			<point x="71" y="760" type="line"/>
			<point x="83" y="790" type="line"/>
			<point x="357" y="790" type="line"/>
			<point x="639" y="790" type="line"/>
			<point x="631" y="760" type="line"/>
		</contour>
	</outline>
</glyph>
<glyph name="quoteleft" format="2">
	<unicode hex="2018"/>
	<advance width="378"/>
	<outline>
		<contour>
			<point x="444" y="1522" type="line"/>
			<point x="379" y="1481"/>
			<point x="286" y="1385"/>
			<point x="265" y="1339" type="qcurve"/>
			<point x="329" y="1341"/>
			<point x="391" y="1288"/>
			<point x="391" y="1238" type="qcurve" smooth="yes"/>
			<point x="391" y="1201"/>
			<point x="338" y="1146"/>
			<point x="295" y="1146" type="qcurve" smooth="yes"/>
			<point x="252" y="1146"/>
			<point x="196" y="1201"/>
			<point x="196" y="1264" type="qcurve" smooth="yes"/>
			<point x="196" y="1342"/>
			<point x="353" y="1502"/>
			<point x="443" y="1531" type="qcurve"/>
		</contour>
	</outline>
</glyph>
<glyph name="quoteright" format="2">
	<unicode hex="2019"/>
	<advance width="378"/>
	<outline>
		<contour>
			<point x="193" y="1135" type="line"/>
			<point x="258" y="1176"/>
			<point x="351" y="1272"/>
			<point x="372" y="1318" type="qcurve"/>
			<point x="308" y="1316"/>
			<point x="246" y="1369"/>
			<point x="246" y="1419" type="qcurve" smooth="yes"/>
			<point x="246" y="1456"/>
			<point x="299" y="1511"/>
			<point x="342" y="1511" type="qcurve" smooth="yes"/>
			<point x="385" y="1511"/>
			<point x="441" y="1456"/>
			<point x="441" y="1393" type="qcurve" smooth="yes"/>
			<point x="441" y="1315"/>
			<point x="284" y="1155"/>
			<point x="194" y="1126" type="qcurve"/>
		</contour>
	</outline>
</glyph>
<glyph name="quotedblbase" format="2">
	<unicode hex="201E"/>
	<advance width="660"/>
	<outline>
		<contour>
			<point x="212" y="-178" type="line"/>
			<point x="277" y="-137"/>
			<point x="357" y="-56"/>
			<point x="379" y="-10" type="qcurve"/>
			<point x="314" y="-12"/>
			<point x="253" y="41"/>
			<point x="253" y="91" type="qcurve" smooth="yes"/>
			<point x="253" y="127"/>
			<point x="306" y="183"/>
			<point x="349" y="183" type="qcurve" smooth="yes"/>
			<point x="391" y="183"/>
			<point x="448" y="127"/>
			<point x="448" y="64" type="qcurve" smooth="yes"/>
			<point x="448" y="-14"/>
			<point x="303" y="-158"/>
			<point x="213" y="-187" type="qcurve"/>
		</contour>
		<contour>
			<point x="-78" y="-178" type="line"/>
			<point x="-13" y="-137"/>
			<point x="67" y="-56"/>
			<point x="89" y="-10" type="qcurve"/>
			<point x="24" y="-12"/>
			<point x="-37" y="41"/>
			<point x="-37" y="91" type="qcurve" smooth="yes"/>
			<point x="-37" y="127"/>
			<point x="16" y="183"/>
			<point x="59" y="183" type="qcurve" smooth="yes"/>
			<point x="101" y="183"/>
			<point x="158" y="127"/>
			<point x="158" y="64" type="qcurve" smooth="yes"/>
			<point x="158" y="-14"/>
			<point x="13" y="-158"/>
			<point x="-77" y="-187" type="qcurve"/>
		</contour>
	</outline>
</glyph>
<glyph name="dagger" format="2">
	<unicode hex="2020"/>
	<advance width="706"/>
	<outline>
		<contour>
			<point x="91" y="-480" type="line"/>
			<point x="129" y="-17" type="line"/>
			<point x="240" y="350" type="line"/>
			<point x="360" y="930" type="line"/>
			<point x="415" y="1450" type="line"/>
			<point x="466" y="1503" type="line"/>
			<point x="527" y="1506" type="line"/>
			<point x="551" y="1426" type="line"/>
			<point x="401" y="930" type="line"/>
			<point x="281" y="350" type="line"/>
			<point x="235" y="-39" type="line"/>
			<point x="92" y="-480" type="line"/>
		</contour>
		<contour>
			<point x="45" y="929" type="line"/>
			<point x="50" y="939" type="line"/>
			<point x="385" y="948" type="line"/>
			<point x="734" y="939" type="line"/>
			<point x="729" y="929" type="line"/>
			<point x="376" y="917" type="line"/>
		</contour>
	</outline>
</glyph>
<glyph name="daggerdbl" format="2">
	<unicode hex="2021"/>
	<advance width="678"/>
	<outline>
		<contour>
			<point x="78" y="-480" type="line"/>
			<point x="111" y="-19" type="line"/>
			<point x="222" y="350" type="line"/>
			<point x="340" y="930" type="line"/>
			<point x="391" y="1450" type="line"/>
			<point x="442" y="1503" type="line"/>
			<point x="503" y="1506" type="line"/>
			<point x="527" y="1426" type="line"/>
			<point x="381" y="930" type="line"/>
			<point x="263" y="350" type="line"/>
			<point x="223" y="-37" type="line"/>
			<point x="79" y="-480" type="line"/>
		</contour>
		<contour>
			<point x="54" y="928" type="line"/>
			<point x="59" y="939" type="line"/>
			<point x="366" y="948" type="line"/>
			<point x="684" y="939" type="line"/>
			<point x="678" y="928" type="line"/>
			<point x="357" y="916" type="line"/>
		</contour>
		<contour>
			<point x="-46" y="428" type="line"/>
			<point x="-42" y="439" type="line"/>
			<point x="264" y="455" type="line"/>
			<point x="582" y="439" type="line"/>
			<point x="578" y="428" type="line"/>
			<point x="255" y="423" type="line"/>
		</contour>
	</outline>
</glyph>
<glyph name="bullet" format="2">
	<unicode hex="2022"/>
	<advance width="706"/>
	<outline>
		<contour>
			<point x="95" y="743" type="qcurve" smooth="yes"/>
			<point x="95" y="848"/>
			<point x="241" y="1002"/>
			<point x="356" y="1002" type="qcurve" smooth="yes"/>
			<point x="467" y="1002"/>
			<point x="613" y="848"/>
			<point x="613" y="743" type="qcurve" smooth="yes"/>
			<point x="613" y="641"/>
			<point x="467" y="486"/>
			<point x="356" y="486" type="qcurve" smooth="yes"/>
			<point x="241" y="486"/>
			<point x="95" y="641"/>
		</contour>
	</outline>
</glyph>
<glyph name="perthousand" format="2">
	<unicode hex="2030"/>
	<advance width="1840"/>
	<outline>
		<contour>
			<point x="164" y="1083" type="qcurve" smooth="yes"/>
			<point x="211" y="1284"/>
			<point x="432" y="1521"/>
			<point x="582" y="1521" type="qcurve" smooth="yes"/>
			<point x="658" y="1521"/>
			<point x="755" y="1286"/>
			<point x="706" y="1084" type="qcurve" smooth="yes"/>
			<point x="658" y="881"/>
			<point x="438" y="641"/>
			<point x="305" y="641" type="qcurve" smooth="yes"/>
			<point x="209" y="641"/>
			<point x="116" y="876"/>
		</contour>
		<contour>
			<point x="286" y="1102" type="qcurve" smooth="yes"/>
			<point x="240" y="919"/>
			<point x="252" y="668"/>
			<point x="330" y="668" type="qcurve" smooth="yes"/>
			<point x="413" y="667"/>
			<point x="537" y="893"/>
			<point x="584" y="1085" type="qcurve" smooth="yes"/>
			<point x="629" y="1262"/>
			<point x="610" y="1488"/>
			<point x="533" y="1488" type="qcurve" smooth="yes"/>
			<point x="448" y="1489"/>
			<point x="331" y="1284"/>
		</contour>
		<contour>
			<point x="291" y="-4" type="line"/>
			<point x="1068" y="1520" type="line"/>
			<point x="1089" y="1503" type="line"/>
			<point x="314" y="-18" type="line"/>
		</contour>
		<contour>
			<point x="669" y="397" type="qcurve" smooth="yes"/>
			<point x="714" y="593"/>
			<point x="941" y="855"/>
			<point x="1091" y="855" type="qcurve" smooth="yes"/>
			<point x="1167" y="855"/>
			<point x="1258" y="605"/>
			<point x="1211" y="398" type="qcurve" smooth="yes"/>
			<point x="1169" y="215"/>
			<point x="947" y="-25"/>
			<point x="814" y="-25" type="qcurve" smooth="yes"/>
			<point x="719" y="-25"/>
			<point x="625" y="210"/>
		</contour>
		<contour>
			<point x="791" y="416" type="qcurve" smooth="yes"/>
			<point x="749" y="253"/>
			<point x="761" y="3"/>
			<point x="839" y="3" type="qcurve" smooth="yes"/>
			<point x="922" y="2"/>
			<point x="1046" y="227"/>
			<point x="1089" y="399" type="qcurve" smooth="yes"/>
			<point x="1134" y="576"/>
			<point x="1119" y="821"/>
			<point x="1042" y="821" type="qcurve" smooth="yes"/>
			<point x="958" y="822"/>
			<point x="838" y="598"/>
		</contour>
		<contour>
			<point x="1279" y="397" type="qcurve" smooth="yes"/>
			<point x="1324" y="593"/>
			<point x="1551" y="855"/>
			<point x="1701" y="855" type="qcurve" smooth="yes"/>
			<point x="1777" y="855"/>
			<point x="1868" y="605"/>
			<point x="1821" y="398" type="qcurve" smooth="yes"/>
			<point x="1779" y="215"/>
			<point x="1557" y="-25"/>
			<point x="1424" y="-25" type="qcurve" smooth="yes"/>
			<point x="1329" y="-25"/>
			<point x="1235" y="210"/>
		</contour>
		<contour>
			<point x="1401" y="416" type="qcurve" smooth="yes"/>
			<point x="1359" y="253"/>
			<point x="1371" y="3"/>
			<point x="1449" y="3" type="qcurve" smooth="yes"/>
			<point x="1532" y="2"/>
			<point x="1656" y="227"/>
			<point x="1699" y="399" type="qcurve" smooth="yes"/>
			<point x="1744" y="576"/>
			<point x="1729" y="821"/>
			<point x="1652" y="821" type="qcurve" smooth="yes"/>
			<point x="1568" y="822"/>
			<point x="1448" y="598"/>
		</contour>
	</outline>
</glyph>
<glyph name="minute" format="2">
	<unicode hex="2032"/>
	<advance width="468"/>
	<outline>
		<contour>
			<point x="258" y="994" type="line"/>
			<point x="401" y="1424" type="line" smooth="yes"/>
			<point x="413" y="1461"/>
			<point x="477" y="1507"/>
			<point x="517" y="1496" type="qcurve" smooth="yes"/>
			<point x="562" y="1482"/>
			<point x="545" y="1385"/>
			<point x="522" y="1352" type="qcurve" smooth="yes"/>
			<point x="273" y="986" type="line"/>
		</contour>
	</outline>
</glyph>
<glyph name="second" format="2">
	<unicode hex="2033"/>
	<advance width="698"/>
	<outline>
		<contour>
			<point x="258" y="993" type="line"/>
			<point x="407" y="1417" type="line" smooth="yes"/>
			<point x="420" y="1454"/>
			<point x="477" y="1506"/>
			<point x="517" y="1495" type="qcurve" smooth="yes"/>
			<point x="562" y="1481"/>
			<point x="540" y="1395"/>
			<point x="518" y="1361" type="qcurve" smooth="yes"/>
			<point x="273" y="985" type="line"/>
		</contour>
		<contour>
			<point x="488" y="993" type="line"/>
			<point x="637" y="1417" type="line" smooth="yes"/>
			<point x="650" y="1454"/>
			<point x="707" y="1506"/>
			<point x="747" y="1495" type="qcurve" smooth="yes"/>
			<point x="792" y="1481"/>
			<point x="770" y="1395"/>
			<point x="748" y="1361" type="qcurve" smooth="yes"/>
			<point x="503" y="985" type="line"/>
		</contour>
	</outline>
</glyph>
<glyph name="guilsinglright" format="2">
	<unicode hex="203A"/>
	<advance width="534"/>
	<outline>
		<contour>
			<point x="478" y="607" type="line"/>
			<point x="457" y="591"/>
			<point x="63" y="345"/>
			<point x="2" y="310" type="qcurve" smooth="yes"/>
			<point x="-17" y="299"/>
			<point x="-39" y="320"/>
			<point x="-16" y="337" type="qcurve" smooth="yes"/>
			<point x="68" y="399"/>
			<point x="311" y="594"/>
			<point x="353" y="630" type="qcurve"/>
			<point x="317" y="667"/>
			<point x="124" y="844"/>
			<point x="88" y="879" type="qcurve" smooth="yes"/>
			<point x="74" y="893"/>
			<point x="94" y="912"/>
			<point x="109" y="902" type="qcurve" smooth="yes"/>
			<point x="162" y="866"/>
			<point x="424" y="688"/>
			<point x="485" y="647" type="qcurve"/>
		</contour>
	</outline>
</glyph>
<glyph name="commercialMinusSign" format="2">
	<unicode hex="2052"/>
	<advance width="744"/>
	<outline>
		<contour>
			<point x="80" y="-2" type="line"/>
			<point x="837" y="1501" type="line"/>
			<point x="862" y="1488" type="line"/>
			<point x="104" y="-14" type="line"/>
		</contour>
		<contour>
			<point x="451" y="85" type="qcurve" smooth="yes"/>
			<point x="451" y="129"/>
			<point x="511" y="194"/>
			<point x="559" y="194" type="qcurve" smooth="yes"/>
			<point x="606" y="194"/>
			<point x="667" y="129"/>
			<point x="667" y="85" type="qcurve" smooth="yes"/>
			<point x="667" y="43"/>
			<point x="606" y="-22"/>
			<point x="559" y="-22" type="qcurve" smooth="yes"/>
			<point x="511" y="-22"/>
			<point x="451" y="43"/>
		</contour>
		<contour>
			<point x="283" y="1410" type="qcurve" smooth="yes"/>
			<point x="283" y="1453"/>
			<point x="344" y="1518"/>
			<point x="391" y="1518" type="qcurve" smooth="yes"/>
			<point x="439" y="1518"/>
			<point x="499" y="1453"/>
			<point x="499" y="1410" type="qcurve" smooth="yes"/>
			<point x="499" y="1367"/>
			<point x="439" y="1302"/>
			<point x="391" y="1302" type="qcurve" smooth="yes"/>
			<point x="344" y="1302"/>
			<point x="283" y="1367"/>
		</contour>
	</outline>
</glyph>
<glyph name="foursuperior" format="2">
	<unicode hex="2074"/>
	<advance width="603"/>
	<outline>
		<contour>
			<point x="173" y="946" type="line"/>
			<point x="162" y="965" type="line"/>
			<point x="600" y="1540" type="line"/>
			<point x="660" y="1524" type="line"/>
			<point x="660" y="1502" type="line"/>
			<point x="565" y="962" type="line"/>
			<point x="540" y="786" type="line"/>
			<point x="540" y="712" type="line"/>
			<point x="408" y="679" type="line"/>
			<point x="397" y="695" type="line"/>
			<point x="446" y="963" type="line"/>
			<point x="523" y="1392" type="line"/>
			<point x="230" y="1001" type="line"/>
			<point x="233" y="996" type="line"/>
			<point x="506" y="990" type="line"/>
			<point x="659" y="990" type="line"/>
			<point x="646" y="945" type="line"/>
			<point x="494" y="943" type="line"/>
		</contour>
	</outline>
</glyph>
<glyph name="colonsign" format="2">
	<unicode hex="20A1"/>
	<advance width="871"/>
	<outline>
		<contour>
			<point x="369" y="-53" type="line"/>
			<point x="402" y="100" type="line"/>
			<point x="402" y="100" type="line"/>
			<point x="566" y="811" type="line"/>
			<point x="589" y="803" type="line"/>
			<point x="430" y="91" type="line"/>
			<point x="430" y="91" type="line"/>
			<point x="400" y="-40" type="line"/>
		</contour>
		<contour>
			<point x="740" y="1562" type="line"/>
			<point x="769" y="1566" type="line"/>
			<point x="719" y="1363" type="line"/>
			<point x="719" y="1363" type="line"/>
			<point x="589" y="803" type="line"/>
			<point x="566" y="811" type="line"/>
			<point x="695" y="1372" type="line"/>
			<point x="695" y="1372" type="line"/>
		</contour>
		<contour>
			<point x="260" y="-56" type="line"/>
			<point x="299" y="102" type="line"/>
			<point x="299" y="102" type="line"/>
			<point x="466" y="811" type="line"/>
			<point x="489" y="803" type="line"/>
			<point x="325" y="93" type="line"/>
			<point x="325" y="93" type="line"/>
			<point x="291" y="-43" type="line"/>
		</contour>
		<contour>
			<point x="640" y="1562" type="line"/>
			<point x="669" y="1566" type="line"/>
			<point x="625" y="1385" type="line"/>
			<point x="625" y="1385" type="line"/>
			<point x="489" y="803" type="line"/>
			<point x="466" y="811" type="line"/>
			<point x="602" y="1390" type="line"/>
			<point x="602" y="1390" type="line"/>
		</contour>
		<contour>
			<point x="81" y="809" type="qcurve" smooth="yes"/>
			<point x="152" y="1149"/>
			<point x="502" y="1432"/>
			<point x="643" y="1403" type="qcurve" smooth="yes"/>
			<point x="796" y="1372"/>
			<point x="894" y="1165"/>
			<point x="882" y="992" type="qcurve"/>
			<point x="835" y="992" type="line"/>
			<point x="846" y="1154"/>
			<point x="759" y="1334"/>
			<point x="653" y="1357" type="qcurve" smooth="yes"/>
			<point x="529" y="1383"/>
			<point x="298" y="1110"/>
			<point x="237" y="819" type="qcurve" smooth="yes"/>
			<point x="176" y="537"/>
			<point x="249" y="174"/>
			<point x="375" y="143" type="qcurve" smooth="yes"/>
			<point x="483" y="117"/>
			<point x="692" y="254"/>
			<point x="765" y="386" type="qcurve"/>
			<point x="781" y="374" type="line"/>
			<point x="796" y="363" type="line"/>
			<point x="694" y="190"/>
			<point x="489" y="57"/>
			<point x="357" y="78" type="qcurve" smooth="yes"/>
			<point x="175" y="108"/>
			<point x="19" y="513"/>
		</contour>
	</outline>
</glyph>
<glyph name="franc" format="2">
	<unicode hex="20A3"/>
	<advance width="783"/>
	<outline>
		<contour>
			<point x="4" y="416" type="line"/>
			<point x="15" y="452" type="line"/>
			<point x="561" y="452" type="line"/>
			<point x="550" y="416" type="line"/>
		</contour>
		<contour>
			<point x="-57" y="0" type="line"/>
			<point x="-67" y="21" type="line"/>
			<point x="54" y="51" type="line"/>
			<point x="221" y="833" type="line"/>
			<point x="346" y="1442" type="line"/>
			<point x="230" y="1475" type="line"/>
			<point x="235" y="1500" type="line"/>
			<point x="888" y="1500" type="line"/>
			<point x="849" y="1148" type="line"/>
			<point x="826" y="1148" type="line"/>
			<point x="782" y="1470" type="line"/>
			<point x="552" y="1460" type="line"/>
			<point x="513" y="1437" type="line"/>
			<point x="376" y="831" type="line"/>
			<point x="223" y="51" type="line"/>
			<point x="335" y="21" type="line"/>
			<point x="330" y="0" type="line"/>
		</contour>
		<contour>
			<point x="275" y="754" type="line"/>
			<point x="280" y="778" type="line"/>
			<point x="588" y="782" type="line"/>
			<point x="674" y="918" type="line"/>
			<point x="698" y="918" type="line"/>
			<point x="632" y="602" type="line"/>
			<point x="613" y="602" type="line"/>
			<point x="591" y="739" type="line"/>
		</contour>
	</outline>
</glyph>
<glyph name="peseta" format="2">
	<unicode hex="20A7"/>
	<advance width="1758"/>
	<outline>
		<contour>
			<point x="-76" y="0" type="line"/>
			<point x="-76" y="21" type="line"/>
			<point x="45" y="51" type="line"/>
			<point x="200" y="796" type="line"/>
			<point x="345" y="1442" type="line"/>
			<point x="210" y="1475" type="line"/>
			<point x="215" y="1500" type="line"/>
			<point x="628" y="1500" type="line" smooth="yes"/>
			<point x="788" y="1500"/>
			<point x="955" y="1282"/>
			<point x="926" y="1085" type="qcurve" smooth="yes"/>
			<point x="896" y="876"/>
			<point x="682" y="631"/>
			<point x="433" y="631" type="qcurve" smooth="yes"/>
			<point x="406" y="631"/>
			<point x="284" y="643"/>
			<point x="250" y="658" type="qcurve"/>
			<point x="266" y="687" type="line"/>
			<point x="315" y="669"/>
			<point x="391" y="660"/>
			<point x="435" y="660" type="qcurve" smooth="yes"/>
			<point x="577" y="660"/>
			<point x="724" y="899"/>
			<point x="755" y="1093" type="qcurve" smooth="yes"/>
			<point x="783" y="1275"/>
			<point x="697" y="1472"/>
			<point x="568" y="1472" type="qcurve" smooth="yes"/>
			<point x="533" y="1472" type="line"/>
			<point x="500" y="1448" type="line"/>
			<point x="355" y="764" type="line"/>
			<point x="209" y="51" type="line"/>
			<point x="337" y="21" type="line"/>
			<point x="332" y="0" type="line"/>
		</contour>
		<contour>
			<point x="826" y="-13" type="line"/>
			<point x="819" y="35" type="line"/>
			<point x="935" y="656" type="line"/>
			<point x="960" y="884" type="line"/>
			<point x="821" y="847" type="line"/>
			<point x="814" y="895" type="line"/>
			<point x="978" y="930"/>
			<point x="1100" y="1122"/>
			<point x="1114" y="1206" type="qcurve"/>
			<point x="1118" y="1215" type="line"/>
			<point x="1132" y="1210" type="line"/>
			<point x="1016" y="443" type="line"/>
			<point x="954" y="90" type="line"/>
			<point x="1161" y="121" type="line"/>
			<point x="1161" y="101" type="line"/>
		</contour>
		<contour>
			<point x="1025" y="884" type="line"/>
			<point x="1024" y="917" type="line"/>
			<point x="1286" y="923" type="line"/>
			<point x="1297" y="894" type="line"/>
		</contour>
		<contour>
			<point x="1112" y="164" type="qcurve" smooth="yes"/>
			<point x="1111" y="216"/>
			<point x="1169" y="271"/>
			<point x="1212" y="271" type="qcurve" smooth="yes"/>
			<point x="1217" y="271" type="line"/>
			<point x="1218" y="183" type="line" smooth="yes"/>
			<point x="1219" y="93"/>
			<point x="1285" y="18"/>
			<point x="1354" y="18" type="qcurve" smooth="yes"/>
			<point x="1441" y="18"/>
			<point x="1564" y="129"/>
			<point x="1566" y="203" type="qcurve" smooth="yes"/>
			<point x="1565" y="265"/>
			<point x="1482" y="345"/>
			<point x="1397" y="420" type="qcurve" smooth="yes"/>
			<point x="1306" y="504"/>
			<point x="1237" y="627"/>
			<point x="1237" y="705" type="qcurve" smooth="yes"/>
			<point x="1238" y="801"/>
			<point x="1387" y="938"/>
			<point x="1513" y="938" type="qcurve" smooth="yes"/>
			<point x="1613" y="938"/>
			<point x="1707" y="856"/>
			<point x="1708" y="806" type="qcurve" smooth="yes"/>
			<point x="1708" y="758"/>
			<point x="1646" y="712"/>
			<point x="1621" y="712" type="qcurve" smooth="yes"/>
			<point x="1614" y="727" type="line"/>
			<point x="1612" y="806" type="line" smooth="yes"/>
			<point x="1613" y="845"/>
			<point x="1557" y="906"/>
			<point x="1492" y="906" type="qcurve" smooth="yes"/>
			<point x="1418" y="906"/>
			<point x="1319" y="829"/>
			<point x="1319" y="762" type="qcurve" smooth="yes"/>
			<point x="1319" y="719"/>
			<point x="1404" y="648"/>
			<point x="1481" y="575" type="qcurve" smooth="yes"/>
			<point x="1568" y="496"/>
			<point x="1639" y="399"/>
			<point x="1642" y="317" type="qcurve" smooth="yes"/>
			<point x="1647" y="166"/>
			<point x="1453" y="1"/>
			<point x="1332" y="1" type="qcurve" smooth="yes"/>
			<point x="1219" y="1"/>
			<point x="1111" y="89"/>
		</contour>
	</outline>
</glyph>
<glyph name="dong" format="2">
	<unicode hex="20AB"/>
	<advance width="787"/>
	<outline>
		<contour>
			<point x="-82" y="-162" type="line"/>
			<point x="-72" y="-124" type="line"/>
			<point x="275" y="-122" type="line"/>
			<point x="610" y="-120" type="line"/>
			<point x="602" y="-155" type="line"/>
			<point x="269" y="-157" type="line"/>
		</contour>
		<contour>
			<point x="444" y="1209" type="line"/>
			<point x="450" y="1251" type="line"/>
			<point x="683" y="1251" type="line"/>
			<point x="869" y="1251" type="line"/>
			<point x="858" y="1213" type="line"/>
			<point x="671" y="1213" type="line"/>
		</contour>
		<contour>
			<point x="-25" y="248" type="qcurve" smooth="yes"/>
			<point x="-11" y="533"/>
			<point x="317" y="921"/>
			<point x="530" y="921" type="qcurve" smooth="yes"/>
			<point x="557" y="921" type="line"/>
			<point x="669" y="1481" type="line"/>
			<point x="497" y="1470" type="line"/>
			<point x="502" y="1493" type="line"/>
			<point x="808" y="1572" type="line"/>
			<point x="816" y="1562" type="line"/>
			<point x="597" y="469" type="line"/>
			<point x="530" y="89" type="line"/>
			<point x="664" y="107" type="line"/>
			<point x="661" y="74" type="line"/>
			<point x="440" y="-6" type="line"/>
			<point x="415" y="14" type="line"/>
			<point x="430" y="233" type="line"/>
			<point x="357" y="109"/>
			<point x="205" y="-10"/>
			<point x="127" y="-10" type="qcurve" smooth="yes"/>
			<point x="39" y="-10"/>
			<point x="-31" y="125"/>
		</contour>
		<contour>
			<point x="113" y="290" type="qcurve" smooth="yes"/>
			<point x="108" y="169"/>
			<point x="135" y="78"/>
			<point x="187" y="78" type="qcurve" smooth="yes"/>
			<point x="272" y="78"/>
			<point x="434" y="335"/>
			<point x="471" y="491" type="qcurve" smooth="yes"/>
			<point x="528" y="790" type="line"/>
			<point x="526" y="818"/>
			<point x="482" y="846"/>
			<point x="451" y="846" type="qcurve" smooth="yes"/>
			<point x="311" y="846"/>
			<point x="125" y="483"/>
		</contour>
	</outline>
</glyph>
<glyph name="hryvnia" format="2">
	<unicode hex="20B4"/>
	<advance width="768"/>
	<outline>
		<contour>
			<point x="24" y="705" type="line"/>
			<point x="718" y="705" type="line"/>
			<point x="717" y="667" type="line"/>
			<point x="22" y="667" type="line"/>
		</contour>
		<contour>
			<point x="72" y="904" type="line"/>
			<point x="765" y="904" type="line"/>
			<point x="763" y="866" type="line"/>
			<point x="55" y="866" type="line"/>
		</contour>
		<contour>
			<point x="614" y="325" type="line"/>
			<point x="527" y="136"/>
			<point x="347" y="-21"/>
			<point x="238" y="-21" type="qcurve" smooth="yes"/>
			<point x="76" y="-21"/>
			<point x="-49" y="179"/>
			<point x="-22" y="311" type="qcurve" smooth="yes"/>
			<point x="-2" y="410"/>
			<point x="108" y="599"/>
			<point x="206" y="684" type="qcurve"/>
			<point x="217" y="694" type="line"/>
			<point x="250" y="723"/>
			<point x="325" y="781"/>
			<point x="368" y="811" type="qcurve" smooth="yes"/>
			<point x="389.9114343147" y="827.1954079718"/>
			<point x="428" y="856"/>
			<point x="455" y="878" type="qcurve"/>
			<point x="466" y="891" type="line"/>
			<point x="523" y="954"/>
			<point x="593" y="1137"/>
			<point x="609" y="1228" type="qcurve" smooth="yes"/>
			<point x="628" y="1337"/>
			<point x="585" y="1476"/>
			<point x="518" y="1476" type="qcurve" smooth="yes"/>
			<point x="431" y="1476"/>
			<point x="287" y="1318"/>
			<point x="233" y="1168" type="qcurve"/>
			<point x="198" y="1181" type="line"/>
			<point x="251" y="1337"/>
			<point x="418" y="1513"/>
			<point x="525" y="1513" type="qcurve" smooth="yes"/>
			<point x="675" y="1513"/>
			<point x="798" y="1364"/>
			<point x="771" y="1232" type="qcurve" smooth="yes"/>
			<point x="749" y="1125"/>
			<point x="608" y="952"/>
			<point x="524" y="888" type="qcurve"/>
			<point x="509" y="876" type="line"/>
			<point x="479" y="855"/>
			<point x="420" y="810"/>
			<point x="386" y="787" type="qcurve" smooth="yes"/>
			<point x="350" y="763"/>
			<point x="305" y="717"/>
			<point x="278" y="691" type="qcurve"/>
			<point x="276" y="681" type="line"/>
			<point x="221" y="609"/>
			<point x="154" y="425"/>
			<point x="135" y="330" type="qcurve" smooth="yes"/>
			<point x="108" y="192"/>
			<point x="161" y="13"/>
			<point x="243" y="13" type="qcurve" smooth="yes"/>
			<point x="326" y="13"/>
			<point x="488.4355580913" y="156.905762849"/>
			<point x="576" y="339" type="qcurve"/>
		</contour>
	</outline>
</glyph>
<glyph name="liraTurkish" format="2">
	<unicode hex="20BA"/>
	<advance width="908"/>
	<outline>
		<contour>
			<point x="100" y="605" type="line"/>
			<point x="91" y="640" type="line"/>
			<point x="304" y="742" type="line"/>
			<point x="304" y="742" type="line"/>
			<point x="639" y="905" type="line"/>
			<point x="634" y="862" type="line"/>
			<point x="304" y="703" type="line"/>
			<point x="304" y="703" type="line"/>
		</contour>
		<contour>
			<point x="105" y="816" type="line"/>
			<point x="98" y="851" type="line"/>
			<point x="347" y="962" type="line"/>
			<point x="347" y="962" type="line"/>
			<point x="690" y="1118" type="line"/>
			<point x="685" y="1076" type="line"/>
			<point x="343" y="923" type="line"/>
			<point x="343" y="922" type="line"/>
		</contour>
		<contour>
			<point x="246" y="45" type="line"/>
			<point x="249" y="34" type="line"/>
			<point x="398" y="84"/>
			<point x="698" y="363"/>
			<point x="747" y="564" type="qcurve" smooth="yes"/>
			<point x="794" y="758" type="line"/>
			<point x="828" y="758" type="line"/>
			<point x="775" y="400" type="line"/>
			<point x="704" y="282"/>
			<point x="448" y="48"/>
			<point x="245" y="-8" type="qcurve"/>
			<point x="138" y="-29" type="line"/>
			<point x="64" y="47" type="line"/>
			<point x="101" y="132" type="line"/>
			<point x="236" y="754" type="line"/>
			<point x="372" y="1437" type="line"/>
			<point x="282" y="1471" type="line"/>
			<point x="289" y="1500" type="line"/>
			<point x="647" y="1500" type="line"/>
			<point x="640" y="1471" type="line"/>
			<point x="537" y="1437" type="line"/>
			<point x="383" y="754" type="line"/>
		</contour>
	</outline>
</glyph>
<glyph name="ruble" format="2">
	<unicode hex="20BD"/>
	<advance width="865"/>
	<outline>
		<contour>
			<point x="-1" y="408" type="line"/>
			<point x="5" y="446" type="line"/>
			<point x="649" y="453" type="line"/>
			<point x="639" y="415" type="line"/>
		</contour>
		<contour>
			<point x="-89" y="0" type="line"/>
			<point x="-79" y="21" type="line"/>
			<point x="32" y="51" type="line"/>
			<point x="186" y="796" type="line"/>
			<point x="332" y="1442" type="line"/>
			<point x="217" y="1475" type="line"/>
			<point x="222" y="1500" type="line"/>
			<point x="581" y="1500" type="line" smooth="yes"/>
			<point x="771" y="1500"/>
			<point x="932" y="1291"/>
			<point x="907" y="1083" type="qcurve" smooth="yes"/>
			<point x="883" y="888"/>
			<point x="626" y="646"/>
			<point x="417" y="646" type="qcurve" smooth="yes"/>
			<point x="300.0051282051" y="646"/>
			<point x="125.8779559563" y="685.1253879692"/>
			<point x="43" y="715" type="qcurve"/>
			<point x="55" y="746" type="line"/>
			<point x="138.7035729579" y="718.098809014"/>
			<point x="305.0105263158" y="686"/>
			<point x="419" y="686" type="qcurve" smooth="yes"/>
			<point x="541" y="686"/>
			<point x="716" y="886"/>
			<point x="747" y="1119" type="qcurve" smooth="yes"/>
			<point x="769" y="1305"/>
			<point x="650" y="1472"/>
			<point x="521" y="1472" type="qcurve" smooth="yes"/>
			<point x="523" y="1472" type="line"/>
			<point x="490" y="1448" type="line"/>
			<point x="344" y="764" type="line"/>
			<point x="199" y="51" type="line"/>
			<point x="330" y="21" type="line"/>
			<point x="325" y="0" type="line"/>
		</contour>
	</outline>
</glyph>
<glyph name="trademark" format="2">
	<unicode hex="2122"/>
	<advance width="1258"/>
	<outline>
		<contour>
			<point x="239" y="1265" type="line"/>
			<point x="295" y="1500" type="line"/>
			<point x="680" y="1500" type="line"/>
			<point x="624" y="1265" type="line"/>
			<point x="597" y="1265" type="line"/>
			<point x="603" y="1470" type="line"/>
			<point x="524" y="1470" type="line"/>
			<point x="511" y="1453" type="line"/>
			<point x="453" y="1183" type="line"/>
			<point x="401" y="938" type="line"/>
			<point x="469" y="913" type="line"/>
			<point x="462" y="886" type="line"/>
			<point x="210" y="886" type="line"/>
			<point x="217" y="913" type="line"/>
			<point x="312" y="938" type="line"/>
			<point x="371" y="1197" type="line"/>
			<point x="429" y="1453" type="line"/>
			<point x="420" y="1470" type="line"/>
			<point x="354" y="1470" type="line"/>
			<point x="266" y="1265" type="line"/>
		</contour>
		<contour>
			<point x="543" y="887" type="line"/>
			<point x="550" y="912" type="line"/>
			<point x="636" y="936" type="line"/>
			<point x="692" y="1172" type="line"/>
			<point x="756" y="1447" type="line"/>
			<point x="696" y="1476" type="line"/>
			<point x="703" y="1500" type="line"/>
			<point x="858" y="1498" type="line"/>
			<point x="875" y="1013" type="line"/>
			<point x="1122" y="1500" type="line"/>
			<point x="1303" y="1500" type="line"/>
			<point x="1296" y="1476" type="line"/>
			<point x="1215" y="1447" type="line"/>
			<point x="1158" y="1211" type="line"/>
			<point x="1095" y="934" type="line"/>
			<point x="1162" y="910" type="line"/>
			<point x="1157" y="886" type="line"/>
			<point x="923" y="886" type="line"/>
			<point x="928" y="910" type="line"/>
			<point x="1013" y="934" type="line"/>
			<point x="1076" y="1211" type="line"/>
			<point x="1133" y="1451" type="line"/>
			<point x="838" y="879" type="line"/>
			<point x="796" y="879" type="line"/>
			<point x="782" y="1421" type="line"/>
			<point x="720" y="1172" type="line"/>
			<point x="666" y="936" type="line"/>
			<point x="723" y="912" type="line"/>
			<point x="716" y="887" type="line"/>
		</contour>
	</outline>
</glyph>
<glyph name="minus" format="2">
	<unicode hex="2212"/>
	<advance width="685"/>
	<outline>
		<contour>
			<point x="34" y="582" type="line"/>
			<point x="34" y="682" type="line"/>
			<point x="633" y="682" type="line"/>
			<point x="633" y="582" type="line"/>
		</contour>
	</outline>
</glyph>
<glyph name="divisionslash" format="2">
	<unicode hex="2215"/>
	<advance width="488"/>
	<outline>
		<contour>
			<point x="-81" y="-137" type="line"/>
			<point x="533" y="1536" type="line"/>
			<point x="563" y="1534" type="line"/>
			<point x="-50" y="-140" type="line"/>
		</contour>
	</outline>
</glyph>
<glyph name="bulletoperator" format="2">
	<unicode hex="2219"/>
	<advance width="879"/>
	<outline>
		<contour>
			<point x="370" y="644" type="qcurve" smooth="yes"/>
			<point x="370" y="696"/>
			<point x="443" y="774"/>
			<point x="500" y="774" type="qcurve" smooth="yes"/>
			<point x="557" y="774"/>
			<point x="630" y="696"/>
			<point x="630" y="644" type="qcurve" smooth="yes"/>
			<point x="630" y="593"/>
			<point x="557" y="515"/>
			<point x="500" y="515" type="qcurve" smooth="yes"/>
			<point x="443" y="515"/>
			<point x="370" y="593"/>
		</contour>
	</outline>
</glyph>
<glyph name="approxequal" format="2">
	<unicode hex="2248"/>
	<advance width="685"/>
	<outline>
		<contour>
			<point x="84" y="697" type="line"/>
			<point x="112" y="769"/>
			<point x="213" y="897"/>
			<point x="274" y="906" type="qcurve"/>
			<point x="501" y="796" type="line"/>
			<point x="543" y="796"/>
			<point x="605" y="886"/>
			<point x="624" y="924" type="qcurve"/>
			<point x="632" y="910" type="line"/>
			<point x="615" y="844"/>
			<point x="536" y="697"/>
			<point x="462" y="687" type="qcurve"/>
			<point x="248" y="790" type="line"/>
			<point x="207" y="790"/>
			<point x="125" y="723"/>
			<point x="91" y="679" type="qcurve"/>
		</contour>
		<contour>
			<point x="84" y="400" type="line"/>
			<point x="112" y="472"/>
			<point x="213" y="600"/>
			<point x="274" y="609" type="qcurve"/>
			<point x="501" y="499" type="line"/>
			<point x="543" y="499"/>
			<point x="605" y="588"/>
			<point x="624" y="627" type="qcurve"/>
			<point x="632" y="613" type="line"/>
			<point x="615" y="546"/>
			<point x="536" y="400"/>
			<point x="462" y="390" type="qcurve"/>
			<point x="248" y="493" type="line"/>
			<point x="207" y="493"/>
			<point x="125" y="426"/>
			<point x="91" y="382" type="qcurve"/>
		</contour>
	</outline>
</glyph>
<glyph name="notequal" format="2">
	<unicode hex="2260"/>
	<advance width="685"/>
	<outline>
		<contour>
			<point x="77" y="430" type="line"/>
			<point x="77" y="524" type="line"/>
			<point x="337" y="521" type="line"/>
			<point x="580" y="524" type="line"/>
			<point x="580" y="430" type="line"/>
			<point x="347" y="433" type="line"/>
		</contour>
		<contour>
			<point x="77" y="698" type="line"/>
			<point x="77" y="792" type="line"/>
			<point x="337" y="789" type="line"/>
			<point x="580" y="792" type="line"/>
			<point x="580" y="698" type="line"/>
			<point x="367" y="701" type="line"/>
		</contour>
		<contour>
			<point x="122" y="193" type="line"/>
			<point x="489" y="1085" type="line"/>
			<point x="562" y="1051" type="line"/>
			<point x="195" y="159" type="line"/>
		</contour>
	</outline>
</glyph>
<glyph name="greaterequal" format="2">
	<unicode hex="2265"/>
	<advance width="685"/>
	<outline>
		<contour>
			<point x="4" y="66" type="line"/>
			<point x="4" y="153" type="line"/>
			<point x="504" y="153" type="line"/>
			<point x="504" y="66" type="line"/>
		</contour>
		<contour>
			<point x="586" y="622" type="qcurve"/>
			<point x="545" y="588"/>
			<point x="110" y="280"/>
			<point x="56" y="240" type="qcurve" smooth="yes"/>
			<point x="49" y="235"/>
			<point x="17" y="270"/>
			<point x="27" y="279" type="qcurve" smooth="yes"/>
			<point x="115" y="364"/>
			<point x="376" y="595"/>
			<point x="404" y="621" type="qcurve"/>
			<point x="371" y="655"/>
			<point x="173" y="837"/>
			<point x="95" y="905" type="qcurve" smooth="yes"/>
			<point x="80" y="918"/>
			<point x="112" y="955"/>
			<point x="123" y="947" type="qcurve" smooth="yes"/>
			<point x="200" y="891"/>
			<point x="538" y="660"/>
		</contour>
	</outline>
</glyph>
<glyph name="leftanglebracket" format="2">
	<unicode hex="27E8"/>
	<advance width="840"/>
	<outline>
		<contour>
			<point x="970" y="1518" type="line"/>
			<point x="999" y="1478" type="line"/>
			<point x="246" y="696" type="line"/>
			<point x="660" y="-166" type="line"/>
			<point x="640" y="-174" type="line"/>
			<point x="91" y="722" type="line"/>
			<point x="114" y="701" type="line"/>
		</contour>
	</outline>
</glyph>
<glyph name="rightanglebracket" format="2">
	<unicode hex="27E9"/>
	<advance width="840"/>
	<outline>
		<contour>
			<point x="-42" y="-174" type="line"/>
			<point x="-71" y="-134" type="line"/>
			<point x="682" y="648" type="line"/>
			<point x="268" y="1510" type="line"/>
			<point x="288" y="1518" type="line"/>
			<point x="837" y="622" type="line"/>
			<point x="814" y="643" type="line"/>
		</contour>
	</outline>
</glyph>
<glyph name="acutecomb.case" format="2">
	<advance width="896"/>
	<outline>
		<contour>
			<point x="581" y="1572" type="line"/>
			<point x="738" y="1779" type="line" smooth="yes"/>
			<point x="757" y="1804"/>
			<point x="794" y="1823"/>
			<point x="809" y="1823" type="qcurve" smooth="yes"/>
			<point x="837" y="1823"/>
			<point x="876" y="1785"/>
			<point x="876" y="1761" type="qcurve" smooth="yes"/>
			<point x="876" y="1745"/>
			<point x="854" y="1709"/>
			<point x="836" y="1699" type="qcurve" smooth="yes"/>
			<point x="594" y="1560" type="line"/>
		</contour>
	</outline>
</glyph>
<glyph name="breve.cyr" format="2">
	<advance width="1024"/>
	<outline>
		<contour>
			<point x="643" y="1286" type="qcurve"/>
			<point x="746" y="1239" type="line"/>
			<point x="717" y="1127"/>
			<point x="577" y="1014"/>
			<point x="490" y="1014" type="qcurve" smooth="yes"/>
			<point x="400" y="1014"/>
			<point x="286" y="1128"/>
			<point x="267" y="1239" type="qcurve"/>
			<point x="385" y="1286" type="line"/>
			<point x="387" y="1176"/>
			<point x="438" y="1058"/>
			<point x="492" y="1058" type="qcurve" smooth="yes"/>
			<point x="551" y="1058"/>
			<point x="617" y="1162"/>
		</contour>
	</outline>
	<guideline x="128" y="1963" angle="79" identifier="Lkr8vRnJAl"/>
	<guideline x="128" y="1963" angle="79" identifier="XufveBgjgj"/>
</glyph>
<glyph name="brevebelowcomb.case" format="2">
	<advance width="896"/>
	<outline>
		<contour>
			<point x="488" y="-177" type="qcurve"/>
			<point x="523" y="-192" type="line"/>
			<point x="485" y="-291"/>
			<point x="358" y="-396"/>
			<point x="258" y="-396" type="qcurve" smooth="yes"/>
			<point x="162" y="-396"/>
			<point x="41" y="-275"/>
			<point x="19" y="-172" type="qcurve"/>
			<point x="74" y="-160" type="line"/>
			<point x="96" y="-216"/>
			<point x="199" y="-291"/>
			<point x="265" y="-291" type="qcurve" smooth="yes"/>
			<point x="333" y="-291"/>
			<point x="447" y="-235"/>
		</contour>
	</outline>
</glyph>
<glyph name="brevebelowcomb" format="2">
	<advance width="896"/>
	<outline>
		<contour>
			<point x="442" y="-130" type="qcurve"/>
			<point x="453" y="-141" type="line"/>
			<point x="422" y="-217"/>
			<point x="288" y="-337"/>
			<point x="208" y="-337" type="qcurve" smooth="yes"/>
			<point x="134" y="-337"/>
			<point x="30" y="-213"/>
			<point x="36" y="-128" type="qcurve"/>
			<point x="58" y="-117" type="line"/>
			<point x="72" y="-167"/>
			<point x="164" y="-248"/>
			<point x="221" y="-248" type="qcurve" smooth="yes"/>
			<point x="280" y="-248"/>
			<point x="416" y="-170"/>
		</contour>
	</outline>
</glyph>
<glyph name="brevecomb.case" format="2">
	<advance width="896"/>
	<outline>
		<contour>
			<point x="904" y="1809" type="qcurve"/>
			<point x="925" y="1801" type="line"/>
			<point x="884" y="1721"/>
			<point x="740" y="1597"/>
			<point x="652" y="1597" type="qcurve" smooth="yes"/>
			<point x="566" y="1597"/>
			<point x="448" y="1731"/>
			<point x="450" y="1815" type="qcurve"/>
			<point x="476" y="1823" type="line"/>
			<point x="492" y="1776"/>
			<point x="601" y="1702"/>
			<point x="667" y="1702" type="qcurve" smooth="yes"/>
			<point x="745" y="1702"/>
			<point x="877" y="1774"/>
		</contour>
	</outline>
</glyph>
<glyph name="brevecombstack.case" format="2">
	<advance width="896"/>
	<outline>
		<contour>
			<point x="822" y="1757" type="qcurve"/>
			<point x="841" y="1750" type="line"/>
			<point x="800" y="1669"/>
			<point x="667" y="1567"/>
			<point x="584" y="1567" type="qcurve" smooth="yes"/>
			<point x="493" y="1567"/>
			<point x="392" y="1684"/>
			<point x="394" y="1763" type="qcurve"/>
			<point x="418" y="1771" type="line"/>
			<point x="436" y="1726"/>
			<point x="528" y="1667"/>
			<point x="598" y="1667" type="qcurve" smooth="yes"/>
			<point x="672" y="1667"/>
			<point x="796" y="1725"/>
		</contour>
	</outline>
</glyph>
<glyph name="breveinvertedcomb.case" format="2">
	<advance width="896"/>
	<outline>
		<contour>
			<point x="341" y="1646" type="qcurve"/>
			<point x="315" y="1664" type="line"/>
			<point x="357" y="1751"/>
			<point x="533" y="1868"/>
			<point x="643" y="1859" type="qcurve" smooth="yes"/>
			<point x="753" y="1848"/>
			<point x="864" y="1719"/>
			<point x="864" y="1622" type="qcurve"/>
			<point x="824" y="1610" type="line"/>
			<point x="805" y="1676"/>
			<point x="701" y="1745"/>
			<point x="624" y="1754" type="qcurve" smooth="yes"/>
			<point x="537" y="1762"/>
			<point x="392" y="1697"/>
		</contour>
	</outline>
</glyph>
<glyph name="breveinvertedcomb" format="2">
	<advance width="896"/>
	<outline>
		<contour>
			<point x="293" y="1043" type="qcurve"/>
			<point x="269" y="1066" type="line"/>
			<point x="304" y="1145"/>
			<point x="453" y="1243"/>
			<point x="543" y="1234" type="qcurve" smooth="yes"/>
			<point x="632" y="1223"/>
			<point x="716" y="1106"/>
			<point x="716" y="1017" type="qcurve"/>
			<point x="684" y="1003" type="line"/>
			<point x="668" y="1064"/>
			<point x="587" y="1133"/>
			<point x="526" y="1141" type="qcurve" smooth="yes"/>
			<point x="455" y="1149"/>
			<point x="337" y="1091"/>
		</contour>
	</outline>
</glyph>
<glyph name="caroncomb.alt" format="2">
	<advance width="896"/>
	<outline>
		<contour>
			<point x="455" y="1010" type="line"/>
			<point x="540" y="1353" type="line" smooth="yes"/>
			<point x="563" y="1440"/>
			<point x="599" y="1494"/>
			<point x="627" y="1498" type="qcurve" smooth="yes"/>
			<point x="651" y="1502"/>
			<point x="685" y="1476"/>
			<point x="688" y="1451" type="qcurve" smooth="yes"/>
			<point x="692" y="1426"/>
			<point x="665" y="1365"/>
			<point x="641" y="1317" type="qcurve" smooth="yes"/>
			<point x="485" y="1009" type="line"/>
		</contour>
	</outline>
</glyph>
<glyph name="caroncomb.case" format="2">
	<advance width="896"/>
	<outline>
		<contour>
			<point x="627" y="1605" type="qcurve" smooth="yes"/>
			<point x="601" y="1605"/>
			<point x="574" y="1660"/>
			<point x="557" y="1701" type="qcurve" smooth="yes"/>
			<point x="460" y="1925" type="line"/>
			<point x="481" y="1934" type="line"/>
			<point x="649" y="1733" type="line"/>
			<point x="948" y="1940" type="line"/>
			<point x="959" y="1919" type="line"/>
			<point x="738" y="1696" type="line" smooth="yes"/>
			<point x="698" y="1656"/>
			<point x="653" y="1605"/>
		</contour>
	</outline>
</glyph>
<glyph name="cedillacomb.case" format="2">
	<advance width="896"/>
	<outline>
		<contour>
			<point x="284" y="0" type="line"/>
			<point x="224" y="-99" type="line"/>
			<point x="243" y="-87"/>
			<point x="315" y="-67"/>
			<point x="342" y="-67" type="qcurve" smooth="yes"/>
			<point x="411" y="-67"/>
			<point x="507" y="-169"/>
			<point x="498" y="-251" type="qcurve" smooth="yes"/>
			<point x="487" y="-343"/>
			<point x="338" y="-429"/>
			<point x="249" y="-429" type="qcurve" smooth="yes"/>
			<point x="168" y="-429"/>
			<point x="56" y="-372"/>
			<point x="20" y="-319" type="qcurve"/>
			<point x="42" y="-304" type="line"/>
			<point x="73" y="-336"/>
			<point x="151" y="-385"/>
			<point x="225" y="-385" type="qcurve" smooth="yes"/>
			<point x="309" y="-385"/>
			<point x="386" y="-309"/>
			<point x="394" y="-252" type="qcurve" smooth="yes"/>
			<point x="399" y="-208"/>
			<point x="343" y="-123"/>
			<point x="290" y="-123" type="qcurve" smooth="yes"/>
			<point x="262" y="-123"/>
			<point x="215" y="-138"/>
			<point x="197" y="-145" type="qcurve"/>
			<point x="185" y="-116" type="line"/>
			<point x="265" y="10" type="line"/>
		</contour>
	</outline>
</glyph>
<glyph name="circumflexcomb.case" format="2">
	<advance width="896"/>
	<outline>
		<contour>
			<point x="724" y="1885" type="qcurve" smooth="yes"/>
			<point x="754" y="1884"/>
			<point x="772" y="1840"/>
			<point x="788" y="1797" type="qcurve" smooth="yes"/>
			<point x="872" y="1569" type="line"/>
			<point x="854" y="1555" type="line"/>
			<point x="695" y="1747" type="line"/>
			<point x="416" y="1554" type="line"/>
			<point x="399" y="1569" type="line"/>
			<point x="610" y="1802" type="line" smooth="yes"/>
			<point x="657" y="1854"/>
			<point x="694" y="1887"/>
		</contour>
	</outline>
</glyph>
<glyph name="circumflexcombstack.case" format="2">
	<advance width="896"/>
	<outline>
		<contour>
			<point x="737" y="1891" type="qcurve" smooth="yes"/>
			<point x="757" y="1889"/>
			<point x="791" y="1839"/>
			<point x="808" y="1790" type="qcurve" smooth="yes"/>
			<point x="873" y="1578" type="line"/>
			<point x="846" y="1565" type="line"/>
			<point x="718" y="1753" type="line"/>
			<point x="429" y="1572" type="line"/>
			<point x="403" y="1589" type="line"/>
			<point x="610" y="1795" type="line" smooth="yes"/>
			<point x="657" y="1843"/>
			<point x="717" y="1893"/>
		</contour>
	</outline>
</glyph>
<glyph name="commaaccentcomb.case" format="2">
	<advance width="896"/>
	<outline>
		<contour>
			<point x="109" y="-486" type="line"/>
			<point x="176" y="-437"/>
			<point x="270" y="-334"/>
			<point x="283" y="-292" type="qcurve"/>
			<point x="234" y="-292"/>
			<point x="177" y="-235"/>
			<point x="177" y="-195" type="qcurve" smooth="yes"/>
			<point x="177" y="-151"/>
			<point x="239" y="-93"/>
			<point x="281" y="-93" type="qcurve" smooth="yes"/>
			<point x="326" y="-93"/>
			<point x="380" y="-153"/>
			<point x="379" y="-199" type="qcurve" smooth="yes"/>
			<point x="379" y="-278"/>
			<point x="237" y="-441"/>
			<point x="125" y="-509" type="qcurve"/>
		</contour>
	</outline>
</glyph>
<glyph name="commaaccentcomb" format="2">
	<advance width="896"/>
	<outline>
		<contour>
			<point x="111" y="-433" type="line"/>
			<point x="171" y="-387"/>
			<point x="255" y="-307"/>
			<point x="267" y="-271" type="qcurve"/>
			<point x="222" y="-271"/>
			<point x="176" y="-219"/>
			<point x="176" y="-183" type="qcurve" smooth="yes"/>
			<point x="176" y="-141"/>
			<point x="232" y="-88"/>
			<point x="270" y="-88" type="qcurve" smooth="yes"/>
			<point x="310" y="-88"/>
			<point x="354" y="-133"/>
			<point x="353" y="-174" type="qcurve" smooth="yes"/>
			<point x="353" y="-248"/>
			<point x="224" y="-393"/>
			<point x="124" y="-453" type="qcurve"/>
		</contour>
	</outline>
</glyph>
<glyph name="dblgravecomb.case" format="2">
	<advance width="896"/>
	<outline>
		<contour>
			<point x="305" y="1878" type="qcurve" smooth="yes"/>
			<point x="311" y="1907"/>
			<point x="352" y="1924"/>
			<point x="373" y="1920" type="qcurve" smooth="yes"/>
			<point x="393" y="1915"/>
			<point x="415" y="1892"/>
			<point x="428" y="1865" type="qcurve" smooth="yes"/>
			<point x="563" y="1601" type="line"/>
			<point x="550" y="1584" type="line"/>
			<point x="326" y="1786" type="line" smooth="yes"/>
			<point x="308" y="1803"/>
			<point x="298" y="1861"/>
		</contour>
		<contour>
			<point x="558" y="1879" type="qcurve" smooth="yes"/>
			<point x="565" y="1907"/>
			<point x="606" y="1927"/>
			<point x="628" y="1921" type="qcurve" smooth="yes"/>
			<point x="648" y="1914"/>
			<point x="669" y="1892"/>
			<point x="682" y="1865" type="qcurve" smooth="yes"/>
			<point x="819" y="1602" type="line"/>
			<point x="804" y="1584" type="line"/>
			<point x="581" y="1786" type="line" smooth="yes"/>
			<point x="563" y="1803"/>
			<point x="552" y="1861"/>
		</contour>
	</outline>
</glyph>
<glyph name="dblgravecomb" format="2">
	<advance width="896"/>
	<outline>
		<contour>
			<point x="290" y="1216" type="qcurve" smooth="yes"/>
			<point x="290" y="1240"/>
			<point x="326" y="1273"/>
			<point x="356" y="1273" type="qcurve" smooth="yes"/>
			<point x="381" y="1273"/>
			<point x="417" y="1231"/>
			<point x="431" y="1203" type="qcurve" smooth="yes"/>
			<point x="513" y="1032" type="line"/>
			<point x="488" y="1020" type="line"/>
			<point x="336" y="1145" type="line" smooth="yes"/>
			<point x="312" y="1165"/>
			<point x="289" y="1190"/>
		</contour>
		<contour>
			<point x="500" y="1221" type="qcurve" smooth="yes"/>
			<point x="500" y="1246"/>
			<point x="536" y="1282"/>
			<point x="565" y="1282" type="qcurve" smooth="yes"/>
			<point x="593" y="1282"/>
			<point x="621" y="1240"/>
			<point x="635" y="1213" type="qcurve" smooth="yes"/>
			<point x="723" y="1042" type="line"/>
			<point x="698" y="1029" type="line"/>
			<point x="540" y="1155" type="line" smooth="yes"/>
			<point x="522" y="1169"/>
			<point x="499" y="1196"/>
		</contour>
	</outline>
</glyph>
<glyph name="diagonalbarO" format="2">
	<advance width="623"/>
	<outline>
		<contour>
			<point x="-58" y="-64" type="line"/>
			<point x="20" y="101" type="line"/>
			<point x="20" y="101" type="line"/>
			<point x="345" y="813" type="line"/>
			<point x="375" y="791" type="line"/>
			<point x="58" y="88" type="line"/>
			<point x="58" y="88" type="line"/>
			<point x="-17" y="-74" type="line"/>
		</contour>
		<contour>
			<point x="687" y="1571" type="line"/>
			<point x="729" y="1571" type="line"/>
			<point x="639" y="1377" type="line"/>
			<point x="639" y="1377" type="line"/>
			<point x="375" y="791" type="line"/>
			<point x="345" y="813" type="line"/>
			<point x="605" y="1394" type="line"/>
			<point x="605" y="1394" type="line"/>
		</contour>
	</outline>
</glyph>
<glyph name="diagonalbarO.rvrn" format="2">
	<advance width="623"/>
	<outline>
		<contour>
			<point x="-58" y="-64" type="line"/>
			<point x="20" y="101" type="line"/>
			<point x="20" y="101" type="line"/>
			<point x="30" y="123" type="line"/>
			<point x="63" y="99" type="line"/>
			<point x="58" y="88" type="line"/>
			<point x="58" y="88" type="line"/>
			<point x="-17" y="-74" type="line"/>
		</contour>
		<contour>
			<point x="687" y="1571" type="line"/>
			<point x="729" y="1571" type="line"/>
			<point x="656" y="1414" type="line"/>
			<point x="656" y="1414" type="line"/>
			<point x="651" y="1403" type="line"/>
			<point x="618" y="1422" type="line"/>
			<point x="622" y="1431" type="line"/>
			<point x="622" y="1431" type="line"/>
		</contour>
	</outline>
</glyph>
<glyph name="diagonalbarl" format="2">
	<advance width="629"/>
	<outline>
		<contour>
			<point x="335" y="715" type="line"/>
			<point x="610" y="882" type="line"/>
			<point x="621" y="850" type="line"/>
			<point x="351" y="691" type="line"/>
			<point x="56" y="508" type="line"/>
			<point x="45" y="539" type="line"/>
		</contour>
	</outline>
</glyph>
<glyph name="dieresisbelowcomb" format="2">
	<advance width="896"/>
	<outline>
		<contour>
			<point x="330" y="-176" type="qcurve" smooth="yes"/>
			<point x="330" y="-138"/>
			<point x="381" y="-88"/>
			<point x="420" y="-88" type="qcurve" smooth="yes"/>
			<point x="460" y="-88"/>
			<point x="510" y="-137"/>
			<point x="510" y="-176" type="qcurve" smooth="yes"/>
			<point x="510" y="-214"/>
			<point x="459" y="-264"/>
			<point x="420" y="-264" type="qcurve" smooth="yes"/>
			<point x="380" y="-264"/>
			<point x="330" y="-214"/>
		</contour>
		<contour>
			<point x="44" y="-176" type="qcurve" smooth="yes"/>
			<point x="44" y="-138"/>
			<point x="95" y="-88"/>
			<point x="134" y="-88" type="qcurve" smooth="yes"/>
			<point x="174" y="-88"/>
			<point x="224" y="-137"/>
			<point x="224" y="-176" type="qcurve" smooth="yes"/>
			<point x="224" y="-214"/>
			<point x="173" y="-264"/>
			<point x="134" y="-264" type="qcurve" smooth="yes"/>
			<point x="94" y="-264"/>
			<point x="44" y="-214"/>
		</contour>
	</outline>
</glyph>
<glyph name="eight.lc" format="2">
	<advance width="763"/>
	<outline>
		<contour>
			<point x="43" y="263" type="qcurve" smooth="yes"/>
			<point x="51" y="403"/>
			<point x="261" y="605"/>
			<point x="418" y="681" type="qcurve"/>
			<point x="431" y="665" type="line"/>
			<point x="284" y="573"/>
			<point x="161" y="377"/>
			<point x="155" y="266" type="qcurve" smooth="yes"/>
			<point x="149" y="155"/>
			<point x="244" y="13"/>
			<point x="342" y="13" type="qcurve" smooth="yes"/>
			<point x="461" y="13"/>
			<point x="609" y="178"/>
			<point x="612" y="291" type="qcurve" smooth="yes"/>
			<point x="615" y="399"/>
			<point x="511" y="569"/>
			<point x="452" y="623" type="qcurve" smooth="yes"/>
			<point x="386" y="685"/>
			<point x="266" y="865"/>
			<point x="270" y="966" type="qcurve" smooth="yes"/>
			<point x="278" y="1104"/>
			<point x="475" y="1281"/>
			<point x="612" y="1276" type="qcurve" smooth="yes"/>
			<point x="711" y="1272"/>
			<point x="825" y="1149"/>
			<point x="819" y="1055" type="qcurve" smooth="yes"/>
			<point x="812" y="948"/>
			<point x="663" y="785"/>
			<point x="516" y="702" type="qcurve"/>
			<point x="499" y="720" type="line"/>
			<point x="613" y="788"/>
			<point x="705" y="949"/>
			<point x="711" y="1042" type="qcurve" smooth="yes"/>
			<point x="716" y="1139"/>
			<point x="652" y="1242"/>
			<point x="589" y="1245" type="qcurve" smooth="yes"/>
			<point x="498" y="1249"/>
			<point x="385" y="1114"/>
			<point x="381" y="1002" type="qcurve" smooth="yes"/>
			<point x="378" y="926"/>
			<point x="461" y="795"/>
			<point x="538" y="723" type="qcurve" smooth="yes"/>
			<point x="611" y="653"/>
			<point x="741" y="449"/>
			<point x="734" y="333" type="qcurve" smooth="yes"/>
			<point x="726" y="197"/>
			<point x="496" y="-19"/>
			<point x="328" y="-19" type="qcurve" smooth="yes"/>
			<point x="187" y="-19"/>
			<point x="37" y="135"/>
		</contour>
	</outline>
</glyph>
<glyph name="engtail" format="2">
	<advance width="475"/>
	<outline>
		<contour>
			<point x="-119" y="-240" type="qcurve"/>
			<point x="-89" y="-212" type="line"/>
			<point x="-56" y="-251"/>
			<point x="33" y="-286"/>
			<point x="83" y="-286" type="qcurve" smooth="yes"/>
			<point x="142" y="-286"/>
			<point x="222" y="-226"/>
			<point x="237" y="-147" type="qcurve" smooth="yes"/>
			<point x="292" y="140" type="line"/>
			<point x="354" y="190" type="line"/>
			<point x="432" y="190" type="line"/>
			<point x="376" y="-109" type="line" smooth="yes"/>
			<point x="351" y="-242"/>
			<point x="212" y="-354"/>
			<point x="102" y="-354" type="qcurve" smooth="yes"/>
			<point x="4" y="-354"/>
			<point x="-100" y="-281"/>
		</contour>
	</outline>
</glyph>
<glyph name="gravecomb.case" format="2">
	<advance width="896"/>
	<outline>
		<contour>
			<point x="510" y="1733" type="line" smooth="yes"/>
			<point x="497" y="1746"/>
			<point x="486" y="1777"/>
			<point x="486" y="1790" type="qcurve" smooth="yes"/>
			<point x="486" y="1819"/>
			<point x="522" y="1858"/>
			<point x="556" y="1858" type="qcurve" smooth="yes"/>
			<point x="572" y="1858"/>
			<point x="598" y="1837"/>
			<point x="613" y="1806" type="qcurve" smooth="yes"/>
			<point x="707" y="1583" type="line"/>
			<point x="689" y="1570" type="line"/>
		</contour>
	</outline>
</glyph>
<glyph name="gravecombstack.case" format="2">
	<advance width="896"/>
	<outline>
		<contour>
			<point x="397" y="1807" type="qcurve" smooth="yes"/>
			<point x="397" y="1833"/>
			<point x="445" y="1885"/>
			<point x="479" y="1885" type="qcurve" smooth="yes"/>
			<point x="512" y="1885"/>
			<point x="547" y="1848"/>
			<point x="555" y="1829" type="qcurve" smooth="yes"/>
			<point x="642" y="1614" type="line"/>
			<point x="620" y="1598" type="line"/>
			<point x="431" y="1742" type="line" smooth="yes"/>
			<point x="412" y="1756"/>
			<point x="397" y="1785"/>
		</contour>
	</outline>
</glyph>
<glyph name="hookabovecomb.case" format="2">
	<advance width="896"/>
	<outline>
		<contour>
			<point x="496" y="1587" type="line"/>
			<point x="528" y="1723" type="line"/>
			<point x="560" y="1732" type="line"/>
			<point x="584" y="1727"/>
			<point x="629" y="1724"/>
			<point x="646" y="1724" type="qcurve" smooth="yes"/>
			<point x="714" y="1724"/>
			<point x="790" y="1787"/>
			<point x="787" y="1826" type="qcurve" smooth="yes"/>
			<point x="784" y="1870"/>
			<point x="724" y="1895"/>
			<point x="673" y="1895" type="qcurve" smooth="yes"/>
			<point x="633" y="1895"/>
			<point x="571" y="1881"/>
			<point x="522" y="1864" type="qcurve"/>
			<point x="520" y="1902" type="line"/>
			<point x="533" y="1915"/>
			<point x="675" y="1963"/>
			<point x="733" y="1963" type="qcurve" smooth="yes"/>
			<point x="829" y="1963"/>
			<point x="905" y="1892"/>
			<point x="913" y="1856" type="qcurve" smooth="yes"/>
			<point x="920" y="1779"/>
			<point x="803" y="1660"/>
			<point x="697" y="1658" type="qcurve" smooth="yes"/>
			<point x="665" y="1658"/>
			<point x="609" y="1667"/>
			<point x="591" y="1671" type="qcurve"/>
			<point x="570" y="1587" type="line"/>
		</contour>
	</outline>
</glyph>
<glyph name="hookabovecomb" format="2">
	<advance width="896"/>
	<outline>
		<contour>
			<point x="415" y="1160" type="line"/>
			<point x="442" y="1166" type="line"/>
			<point x="465" y="1161"/>
			<point x="507" y="1159"/>
			<point x="542" y="1159" type="qcurve" smooth="yes"/>
			<point x="586" y="1159"/>
			<point x="651" y="1209"/>
			<point x="651" y="1246" type="qcurve" smooth="yes"/>
			<point x="651" y="1282"/>
			<point x="608" y="1316"/>
			<point x="563" y="1316" type="qcurve" smooth="yes"/>
			<point x="523" y="1316"/>
			<point x="455" y="1299"/>
			<point x="412" y="1283" type="qcurve"/>
			<point x="409" y="1329" type="line"/>
			<point x="424" y="1338"/>
			<point x="553" y="1378"/>
			<point x="621" y="1378" type="qcurve" smooth="yes"/>
			<point x="694" y="1378"/>
			<point x="768" y="1309"/>
			<point x="768" y="1253" type="qcurve" smooth="yes"/>
			<point x="768" y="1193"/>
			<point x="670" y="1101"/>
			<point x="570" y="1099" type="qcurve" smooth="yes"/>
			<point x="539" y="1099"/>
			<point x="481" y="1110"/>
			<point x="465" y="1113" type="qcurve"/>
			<point x="444" y="1032" type="line"/>
			<point x="383" y="1032" type="line"/>
		</contour>
	</outline>
</glyph>
<glyph name="hookabovecombstack.case" format="2">
	<advance width="896"/>
	<outline>
		<contour>
			<point x="509" y="1630" type="line"/>
			<point x="533" y="1750" type="line"/>
			<point x="562" y="1745" type="line"/>
			<point x="585" y="1740"/>
			<point x="619" y="1736"/>
			<point x="636" y="1736" type="qcurve" smooth="yes"/>
			<point x="702" y="1736"/>
			<point x="777" y="1794"/>
			<point x="775" y="1832" type="qcurve" smooth="yes"/>
			<point x="773" y="1870"/>
			<point x="710" y="1895"/>
			<point x="661" y="1895" type="qcurve" smooth="yes"/>
			<point x="632" y="1895"/>
			<point x="576" y="1880"/>
			<point x="530" y="1865" type="qcurve"/>
			<point x="529" y="1900" type="line"/>
			<point x="550" y="1914"/>
			<point x="663" y="1960"/>
			<point x="719" y="1960" type="qcurve" smooth="yes"/>
			<point x="811" y="1960"/>
			<point x="886" y="1896"/>
			<point x="894" y="1861" type="qcurve" smooth="yes"/>
			<point x="901" y="1786"/>
			<point x="788" y="1675"/>
			<point x="685" y="1673" type="qcurve" smooth="yes"/>
			<point x="654" y="1673"/>
			<point x="598" y="1680"/>
			<point x="574" y="1686" type="qcurve"/>
			<point x="563" y="1630" type="line"/>
		</contour>
	</outline>
</glyph>
<glyph name="horizontalbarH" format="2">
	<advance width="1190"/>
	<outline>
		<contour>
			<point x="1071" y="1170" type="line"/>
			<point x="420" y="1170" type="line"/>
			<point x="420" y="1170" type="line"/>
			<point x="397" y="1170" type="line"/>
			<point x="401" y="1201" type="line"/>
			<point x="424" y="1201" type="line"/>
			<point x="424" y="1201" type="line"/>
			<point x="1075" y="1201" type="line"/>
		</contour>
		<contour>
			<point x="164" y="1170" type="line"/>
			<point x="169" y="1201" type="line"/>
			<point x="381" y="1201" type="line"/>
			<point x="381" y="1201" type="line"/>
			<point x="401" y="1201" type="line"/>
			<point x="397" y="1170" type="line"/>
			<point x="377" y="1170" type="line"/>
			<point x="377" y="1170" type="line"/>
		</contour>
	</outline>
</glyph>
<glyph name="horizontalbarlc" format="2">
	<advance width="636"/>
	<outline>
		<contour>
			<point x="367" y="729" type="line"/>
			<point x="125" y="729" type="line"/>
			<point x="123" y="752" type="line"/>
			<point x="345" y="752" type="line"/>
			<point x="647" y="752" type="line"/>
			<point x="642" y="729" type="line"/>
		</contour>
	</outline>
</glyph>
<glyph name="horncomb.case" format="2">
	<advance width="896"/>
	<outline>
		<contour>
			<point x="115" y="1497" type="line"/>
			<point x="158" y="1490"/>
			<point x="222" y="1487"/>
			<point x="251" y="1487" type="qcurve" smooth="yes"/>
			<point x="315" y="1487"/>
			<point x="372" y="1534"/>
			<point x="372" y="1588" type="qcurve" smooth="yes"/>
			<point x="372" y="1629"/>
			<point x="354" y="1714"/>
			<point x="343" y="1737" type="qcurve"/>
			<point x="390" y="1740" type="line"/>
			<point x="409" y="1723"/>
			<point x="466" y="1630"/>
			<point x="466" y="1581" type="qcurve" smooth="yes"/>
			<point x="466" y="1518"/>
			<point x="362" y="1429"/>
			<point x="287" y="1429" type="qcurve" smooth="yes"/>
			<point x="228" y="1429"/>
			<point x="150" y="1453"/>
			<point x="110" y="1467" type="qcurve"/>
		</contour>
	</outline>
</glyph>
<glyph name="horncomb" format="2">
	<advance width="896"/>
	<outline>
		<contour>
			<point x="77" y="921" type="line"/>
			<point x="88" y="921"/>
			<point x="147" y="917"/>
			<point x="166" y="917" type="qcurve" smooth="yes"/>
			<point x="214" y="917"/>
			<point x="288" y="975"/>
			<point x="288" y="1025" type="qcurve" smooth="yes"/>
			<point x="288" y="1064"/>
			<point x="282" y="1105"/>
			<point x="279" y="1116" type="qcurve"/>
			<point x="322" y="1121" type="line"/>
			<point x="336" y="1103"/>
			<point x="367" y="1042"/>
			<point x="367" y="1002" type="qcurve" smooth="yes"/>
			<point x="367" y="946"/>
			<point x="290" y="872"/>
			<point x="208" y="872" type="qcurve" smooth="yes"/>
			<point x="166" y="872"/>
			<point x="96" y="886"/>
			<point x="70" y="897" type="qcurve"/>
		</contour>
	</outline>
</glyph>
<glyph name="hungarumlautcomb.case" format="2">
	<advance width="896"/>
	<outline>
		<contour>
			<point x="790" y="1857" type="qcurve" smooth="yes"/>
			<point x="793" y="1832"/>
			<point x="780" y="1793"/>
			<point x="764" y="1775" type="qcurve" smooth="yes"/>
			<point x="565" y="1585" type="line"/>
			<point x="548" y="1602" type="line"/>
			<point x="661" y="1848" type="line" smooth="yes"/>
			<point x="673" y="1875"/>
			<point x="706" y="1903"/>
			<point x="731" y="1906" type="qcurve" smooth="yes"/>
			<point x="748" y="1909"/>
			<point x="786" y="1880"/>
		</contour>
		<contour>
			<point x="999" y="1859" type="qcurve" smooth="yes"/>
			<point x="1002" y="1834"/>
			<point x="989" y="1796"/>
			<point x="974" y="1778" type="qcurve" smooth="yes"/>
			<point x="775" y="1587" type="line"/>
			<point x="758" y="1604" type="line"/>
			<point x="871" y="1851" type="line" smooth="yes"/>
			<point x="883" y="1878"/>
			<point x="916" y="1905"/>
			<point x="941" y="1908" type="qcurve" smooth="yes"/>
			<point x="958" y="1911"/>
			<point x="996" y="1882"/>
		</contour>
	</outline>
</glyph>
<glyph name="macronbelowcomb.case" format="2">
	<advance width="896"/>
	<outline>
		<contour>
			<point x="-29" y="-311" type="line"/>
			<point x="-9" y="-206" type="line"/>
			<point x="513" y="-206" type="line"/>
			<point x="493" y="-311" type="line"/>
		</contour>
	</outline>
</glyph>
<glyph name="macronbelowcomb" format="2">
	<advance width="896"/>
	<outline>
		<contour>
			<point x="-2" y="-257" type="line"/>
			<point x="26" y="-169" type="line"/>
			<point x="449" y="-169" type="line"/>
			<point x="421" y="-257" type="line"/>
		</contour>
	</outline>
</glyph>
<glyph name="macroncomb.case" format="2">
	<advance width="896"/>
	<outline>
		<contour>
			<point x="384" y="1623" type="line"/>
			<point x="404" y="1728" type="line"/>
			<point x="896" y="1728" type="line"/>
			<point x="876" y="1623" type="line"/>
		</contour>
	</outline>
</glyph>
<glyph name="macroncombstack.case" format="2">
	<advance width="896"/>
	<outline>
		<contour>
			<point x="274" y="1653" type="line"/>
			<point x="294" y="1758" type="line"/>
			<point x="816" y="1758" type="line"/>
			<point x="796" y="1653" type="line"/>
		</contour>
	</outline>
</glyph>
<glyph name="ogonekcomb.case" format="2">
	<advance width="896"/>
	<outline>
		<contour>
			<point x="249" y="-188" type="qcurve" smooth="yes"/>
			<point x="248" y="-237"/>
			<point x="305" y="-299"/>
			<point x="353" y="-299" type="qcurve" smooth="yes"/>
			<point x="409" y="-299"/>
			<point x="494" y="-261"/>
			<point x="554" y="-206" type="qcurve"/>
			<point x="569" y="-219" type="line"/>
			<point x="526" y="-287"/>
			<point x="403" y="-386"/>
			<point x="334" y="-386" type="qcurve" smooth="yes"/>
			<point x="265" y="-387"/>
			<point x="163" y="-312"/>
			<point x="168" y="-237" type="qcurve" smooth="yes"/>
			<point x="173" y="-149"/>
			<point x="279" y="-23"/>
			<point x="350" y="24" type="qcurve" smooth="yes"/>
			<point x="375" y="41" type="line"/>
			<point x="385" y="23" type="line"/>
			<point x="375" y="12" type="line" smooth="yes"/>
			<point x="295" y="-62"/>
			<point x="253" y="-143"/>
		</contour>
	</outline>
</glyph>
<glyph name="peso.rvrn" format="2">
	<advance width="842"/>
	<outline>
		<contour>
			<point x="873" y="975" type="line"/>
			<point x="722" y="975" type="line"/>
			<point x="722" y="975" type="line"/>
			<point x="709" y="975" type="line"/>
			<point x="716" y="1013" type="line"/>
			<point x="732" y="1013" type="line"/>
			<point x="732" y="1013" type="line"/>
			<point x="883" y="1013" type="line"/>
		</contour>
		<contour>
			<point x="50" y="975" type="line"/>
			<point x="55" y="1013" type="line"/>
			<point x="245" y="1013" type="line"/>
			<point x="245" y="1013" type="line"/>
			<point x="259" y="1013" type="line"/>
			<point x="252" y="975" type="line"/>
			<point x="237" y="975" type="line"/>
			<point x="237" y="975" type="line"/>
		</contour>
		<contour>
			<point x="921" y="1201" type="line"/>
			<point x="758" y="1201" type="line"/>
			<point x="758" y="1201" type="line"/>
			<point x="736" y="1201" type="line"/>
			<point x="742" y="1239" type="line"/>
			<point x="758" y="1239" type="line"/>
			<point x="758" y="1239" type="line"/>
			<point x="930" y="1239" type="line"/>
		</contour>
		<contour>
			<point x="76" y="1201" type="line"/>
			<point x="81" y="1239" type="line"/>
			<point x="295" y="1239" type="line"/>
			<point x="295" y="1239" type="line"/>
			<point x="306" y="1239" type="line"/>
			<point x="300" y="1201" type="line"/>
			<point x="286" y="1201" type="line"/>
			<point x="286" y="1201" type="line"/>
		</contour>
		<contour>
			<point x="-152" y="0" type="line"/>
			<point x="-152" y="21" type="line"/>
			<point x="-29" y="51" type="line"/>
			<point x="125" y="796" type="line"/>
			<point x="271" y="1442" type="line"/>
			<point x="144" y="1475" type="line"/>
			<point x="149" y="1500" type="line"/>
			<point x="508" y="1500" type="line" smooth="yes"/>
			<point x="671" y="1500"/>
			<point x="849" y="1269"/>
			<point x="823" y="1096" type="qcurve" smooth="yes"/>
			<point x="794" y="906"/>
			<point x="541" y="702"/>
			<point x="340" y="702" type="qcurve" smooth="yes"/>
			<point x="313" y="702"/>
			<point x="202" y="706"/>
			<point x="167" y="717" type="qcurve"/>
			<point x="183" y="746" type="line"/>
			<point x="217" y="739"/>
			<point x="312" y="731"/>
			<point x="342" y="731" type="qcurve" smooth="yes"/>
			<point x="481" y="731"/>
			<point x="622" y="887"/>
			<point x="657" y="1106" type="qcurve" smooth="yes"/>
			<point x="684" y="1284"/>
			<point x="572" y="1472"/>
			<point x="448" y="1472" type="qcurve" smooth="yes"/>
			<point x="463" y="1472" type="line"/>
			<point x="427" y="1448" type="line"/>
			<point x="281" y="764" type="line"/>
			<point x="136" y="51" type="line"/>
			<point x="257" y="21" type="line"/>
			<point x="252" y="0" type="line"/>
		</contour>
	</outline>
</glyph>
<glyph name="ringcomb.case" format="2">
	<advance width="896"/>
	<outline>
		<contour>
			<point x="468" y="1747" type="qcurve" smooth="yes"/>
			<point x="468" y="1835"/>
			<point x="582" y="1950"/>
			<point x="670" y="1950" type="qcurve" smooth="yes"/>
			<point x="759" y="1950"/>
			<point x="873" y="1835"/>
			<point x="873" y="1747" type="qcurve" smooth="yes"/>
			<point x="873" y="1659"/>
			<point x="759" y="1545"/>
			<point x="670" y="1545" type="qcurve" smooth="yes"/>
			<point x="582" y="1545"/>
			<point x="468" y="1659"/>
		</contour>
		<contour>
			<point x="538" y="1747" type="qcurve" smooth="yes"/>
			<point x="538" y="1684"/>
			<point x="607" y="1615"/>
			<point x="670" y="1615" type="qcurve" smooth="yes"/>
			<point x="733" y="1615"/>
			<point x="802" y="1684"/>
			<point x="802" y="1747" type="qcurve" smooth="yes"/>
			<point x="802" y="1810"/>
			<point x="733" y="1879"/>
			<point x="670" y="1879" type="qcurve" smooth="yes"/>
			<point x="607" y="1879"/>
			<point x="538" y="1810"/>
		</contour>
	</outline>
</glyph>
<glyph name="tildecombstack.case" format="2">
	<advance width="896"/>
	<outline>
		<contour>
			<point x="325" y="1676" type="line"/>
			<point x="354" y="1731"/>
			<point x="446" y="1817"/>
			<point x="494" y="1817" type="qcurve" smooth="yes"/>
			<point x="526" y="1817"/>
			<point x="576" y="1796"/>
			<point x="614" y="1763" type="qcurve" smooth="yes"/>
			<point x="650" y="1731"/>
			<point x="707" y="1701"/>
			<point x="736" y="1701" type="qcurve" smooth="yes"/>
			<point x="774" y="1701"/>
			<point x="821" y="1728"/>
			<point x="838" y="1754" type="qcurve"/>
			<point x="851" y="1738" type="line"/>
			<point x="824" y="1676"/>
			<point x="749" y="1604"/>
			<point x="710" y="1604" type="qcurve" smooth="yes"/>
			<point x="668" y="1604"/>
			<point x="596" y="1645"/>
			<point x="573" y="1661" type="qcurve" smooth="yes"/>
			<point x="545" y="1682"/>
			<point x="487" y="1722"/>
			<point x="462" y="1722" type="qcurve" smooth="yes"/>
			<point x="434" y="1722"/>
			<point x="369" y="1691"/>
			<point x="341" y="1653" type="qcurve"/>
		</contour>
	</outline>
</glyph>
